<svg xmlns="http://www.w3.org/2000/svg" xmlns:xlink="http://www.w3.org/1999/xlink" xml:space="preserve" id="Layer_1" x="0" y="0" version="1.1" viewBox="0 0 373 267">
  <style>
    .st2{fill:#fff}
  </style>
  <defs>
    <path id="SVGID_1_" d="M0 0h373v267H0z"/>
  </defs>
  <clipPath id="SVGID_00000162311568175339054050000002915629205314127295_">
    <use xlink:href="#SVGID_1_" overflow="visible"/>
  </clipPath>
  <g clip-path="url(#SVGID_00000162311568175339054050000002915629205314127295_)">
    <path fill="#ffdee2" d="m179.7 147-.2-.3a26 26 0 0 1-2.4-3.7c-.2-.4-.6-.7-1.1-.7l-1.7-2.3-.6-1.1c-.2-.3-.5-.6-.9-.7l-1-1.3-.3-1c-.1-.5-.6-1-1.1-1l-.2-.8c-.1-1-1.4-1.4-2.2-1a120.7 120.7 0 0 0-8.3 5.1l-.4.4a2 2 0 0 0-.6.6c-.2 0-.5 0-.8.2a7 7 0 0 0-2.4 2.1l-.4.3c-.4.2-.6.6-.7 1-1.8.8-3.3 2-4.6 3.7l-.3.3-.2.4a105.3 105.3 0 0 0-5.5 4.5l-6.7 3.9-.6.7-.4.1c-.3 0-.6 0-1 .2l-1 .4-1 .3c-.4 0-.6.2-.8.4a40.2 40.2 0 0 1-7.2 1.7 101.5 101.5 0 0 1-21.9.4c-2.5-.4-5-.6-7.6-.6-.4 0-.8.2-1 .4 0-.2 0-.4-.2-.5-1.2-2.2-3-4.1-5-5.6-.1-.2-.4-.2-.7-.2l-.2-.2-.4-.2h-.8l-.4.2-.5.5-.3.6v.2l-.1.6v.2l-.5.9-.4.5-.8 1.3c-.3 0-.5.3-.7.6l-2.1 3.6-4.2 2.6-.1.2a6.7 6.7 0 0 0-1-1.2l-.8-.5-.8-.4h-.3a26.6 26.6 0 0 0-6.5-7.3l-.1-.1-.1-.1v-.6c.2-.5 0-.9-.1-1.2-.1-.6-.5-1.2-1.1-1.3-.8-.2-1.5 0-2 .7a2.3 2.3 0 0 0-.1 1.9c-.4.8-.8 1.6-1 2.5a28 28 0 0 0-11.8 5.1 30.6 30.6 0 0 0-3.5 2.2 38 38 0 0 0-4.4 3.6 38.3 38.3 0 0 0-10.4 14.1 13 13 0 0 0-2.2 4c-.3.9.6 1.8 1.5 1.8 1 0 2.2 0 3.2-.3 1.8 0 3.5-.1 5.2-.4 2 .1 3.9 0 5.7-.2 1.7.3 3.4.4 5.1.1.2.9.8 1.6 1.9 2h.3l-.3.4c-.6 1.2.4 2.6 1.7 2.2h.4l-.2.5c-.4 1.6 1.5 2.3 2.6 1.4l.2-.1-1.4 2.7a2 2 0 0 0 .2 1.7l-.2.4c-.5 1.1.4 2.5 1.7 2.2.8-.2 1.5-.5 2-1-1 2.1-2 4.2-2.8 6.3-.5 1.1.3 2.7 1.6 2.2a11.6 11.6 0 0 0 1.4-.5c-.4 1.2-.8 2.4-1 3.6-.2 1 .4 2 1.4 2a4 4 0 0 0 2.6-1c.2 1.2 2.2 1.8 2.8.5l.3-.6h.3l-1.3 3.3c-.7 1.7-1.2 3.3-.4 5 .3.7 1.1 1 1.7.8l1.2-.4c1.6-.4 1.2-2.8-.3-3l.5-1.2.4-1c0 1.3.2 2.6.7 3.9.4 1 1 2.4 1.7 3.5l.4 1.5c.2.9 1.4 1.2 2.2.9.7 1.2 2.6.7 2.8-.5l2.6.3a55.7 55.7 0 0 0 13 .1c2 .2 4 .2 6-.1h.2l.6.3 5.3 1.4c0 .4.3.7.5 1l-.1.2c-.1.4 0 .9.2 1.2.2.3.5.6.9.7.4 0 .8 0 1.1-.2h.5l1-.1c.4.2.9.1 1.2 0 1 .4 2.3 0 2.3-1.3l.2-.9c0-1.3-.2-2.6-.4-3.9 0-3.9-.3-7.8-.6-11.8v-3.5a459.6 459.6 0 0 0-.1-25.4c0-.4 0-.8-.3-1.1l.2-1.4c1.1.2 2.3.3 3.4.3 2 .2 4.1.2 6.2-.1l2.2-.1a43.8 43.8 0 0 0 11.3-1.5c4.9-1 9.5-3 13.6-5.7.4-.3.6-.7.7-1.2 3.4-1.6 6.6-3.7 9.4-6.4.3-.2.4-.4.4-.7a190 190 0 0 0 9.5-6.8l.3-.3c.4-.2.5-.5.6-.8 0-.1 0-.2.2-.2.4.1.8.1 1.2-.1 3.2-1.8 6-4 8.6-6.6.3-.2.4-.6.5-1 .2 0 .4-.1.5-.3.3-.3.5-.7.4-1 0-.4-.1-.7-.4-1zM77.3 167.5v-.2l.4.1-.5.8-.3-.3.4-.4zm-.3 30 .2 1.3c-.3-.1-.6 0-.9.1l.7-1.4zm0 22v.6h-1.7l-.7-1.7c-.3-1.6-.9-3.2-1.7-4.7 1-1.5 1.7-3.4 2.3-5.2l1-3.1c-.1 3-.5 6 .7 9 .3.6.8 1 1.4 1-.5 1.3-1 2.7-1.2 4.1zm2.1-8.6c-.1-1-.2-2-.1-3 0 .8.2 1.7.5 2.5l-.4.5z"/>
    <path d="m102.8 119.9-2-2.6a97.4 97.4 0 0 0-7.5-9.7.8.8 0 0 0-1-.2l-.2-.2-1.5-2a1 1 0 0 0-1-.4.9.9 0 0 0-1 0 108.8 108.8 0 0 1-8.5 5.3l-3.7 1.6c-.5.2-1 .7-.7 1.2a18 18 0 0 0 2.3 4.6c.3 1 .7 1.8 1.1 2.6l1.4 2.3c.4.8 1 1.8.8 2.7-.2.4-.5.9-1 1a1 1 0 0 0-1.2-.2 1 1 0 0 0-.5.4c-1.8-.9-3.3-2.2-4.5-3.8-.6-1-1.3-2-2.6-1.5-1 .4-1.4 1.5-1.5 2.5 0 1.2.2 3.7 1.2 5.2.1 1.3 1.4 2.3 2.7 2.4.6 0 1.1-.1 1.6-.3h.4c.5 0 1-.3 1.2-.8l.7-.4.8.5-.1.3a17.3 17.3 0 0 1-2.1 7.1l-.5.5-2 1.1c-.8 0-1.5.3-2 1l-.1.1c-1.2.2-2.4.2-3.6-.1-.7-.1-1.3.3-1.3 1v10c0 .2 0 .4.2.6-.2.2-.2.5 0 .8l.2.2a82.6 82.6 0 0 0 4.7 5.9l.3.1.2.2c-.2.4-.2.8.2 1.2l2.5 2.6c.2.2.4.2.6.2l1.3 1.2c.4.3 1 .4 1.4 0l.5-.6c.2 0 .4 0 .6-.2 2.6-2.2 4.6-5 6-8v-.1c1-1.4 2.2-2.4 1-3.4h-.1l-.1-2.5-.3-1.9c0-1.1-.2-2.3-.6-3.4.2-.2.3-.5.2-.8l-.8-4 .2.2c.4.4.8.4 1.1.2l.3.2 1.3.4h.1c1.3.8 2.8 1 4.3.7.2.2.4.3.7.3a10.5 10.5 0 0 0 5.1-1.9l1-.9c.3-.4.4-1 .3-1.4l.1-.5v-.7a22 22 0 0 0-1.5-8.3v-.8l-.3-4.3a1 1 0 0 0-.4-.6h.2c1.7.2 3.3.2 5-.2.8-.2.8-1.1.4-1.7zM201 136c-1.6-1.6-3.2-3.1-4.7-4.8v-.7c-1-1.4-1.8-2.9-2.7-4.3l-.5-1.2v-.5l-1.6-4.5a26.9 26.9 0 0 1-.8-7.1c0-.6-.4-.9-.8-1a49 49 0 0 0-1.4-6.7 1 1 0 0 0-.7-.7c-1-.2-1.6.2-2 1-.2-1.5-.9-2.8-2.6-1.9a4 4 0 0 0-1.6 2.2 31.4 31.4 0 0 0-2 8.3v.4l-.1 2.6c-.4 3-1.3 6-2.4 8.8-.7 1.7-1.4 3.5-2.3 5.2-.7 1.4-1.6 2.7-3.2 3-1.2.1-.8 1.8.3 1.9h.6c-.3.4-.5.8-.2 1.2 1.4 1.8 2.5 3.7 3.4 5.7.3.6 1.2.6 1.6.2l1.7-1.5c1.3-.8 2.4-1.8 3.5-2.8l.3-.8 2.2-2.4c.3-.2.3-.5.3-.8l.8-.8c.2 0 .2-.3.3-.4l.7.8 1 .7.2.3.4.4.6.7.1.2.3.3.2.6a32 32 0 0 0 5.4 5l.2.1c.1.2.3.2.4.2.5.2 1 0 1.3-.4l4-5.4c.2-.3.1-1-.2-1.2zm111.5 9.7h-1.3c0-1-1.3-1.5-1.8-.6l-.6 1c-1 .2-1.9.7-2.8 1.2a1 1 0 0 0-1.3.6l-.6.4c0-1-1.7-1.5-1.9-.3l-.2 1-2-.8c.5-5 .8-10 .8-15.2.2 1 1.8 1.2 2 .1v-.5c1.3-.2 2.5-.7 3.2-1.8 1.3-2 1-4.7.4-6.8-.5-2-1.8-3.9-4-4.1h-1.8c-.3-.6-1.4-.6-1.7 0a1 1 0 0 0-.7-.2 70.7 70.7 0 0 0-6-6.8l-.1-.1-.9-.8a5 5 0 0 0-3-1.6c-1.2 0-2.2.7-3 1.5L282 115l-7 7.3c-.7.7-.2 1.6.6 1.7l2.1.2h.2l.1.1.2.1.6.3c0 .3.2.6.5.8l.5.2c-.2 1.5-.3 2.9-.2 4.3 0 .3 0 .5.2.6v.5c-.3.2-.6.6-.5 1.1l.6 2c0 .2.2.4.4.5.1.4.5.7.8.7.4 1.2 1 2.3 1.9 3.3a9 9 0 0 0 5 2.9c1.3.3 3.2.2 4.4-.7.2.5 1 .8 1.5.5l1-.5-.4 6c0 .6.2.8.5 1-.2 2.3-.1 4.8 1.2 6.8 1.1 1.7 3 2.7 5 2.8h.1c.4.2.7.1 1 0 2.4-.1 4.6-1.2 6.6-2.4 1.4-.1 2.5-1.9 3.1-3 1-1.7 1.3-3.6 1.3-5.5 0-.4-.4-.9-.8-1z" class="st2"/>
    <path d="m352.6 197 .2-.2c.4-.3.5-.9.2-1.3a1 1 0 0 0-.6-.5c-.4-.9-1-1.5-1.8-1.6-.7-.6-1.5-.8-2.4-.8a10 10 0 0 0-3.8-.8 22 22 0 0 0-6.5-.5 1 1 0 0 0-.7.3c-.9-.2-1.8-.3-2.8-.2l-.4.1h-.8c-.4 0-.6 0-.8.2h-1.1a27.6 27.6 0 0 0-17 .6l-6.9-.3c-.4 0-.6.1-.8.4h-.3c-.9 0-1.8 0-2.7.2h-.7a1 1 0 0 0-.5-.1c-.8 0-1.6.1-2.3.5l-.4.2c-1.2.7-2 1.8-2.3 3.2v.6l-.4 1.3-.5 1.2v.5a14 14 0 0 0-1.8 4.4l.1.7c-.8 1.6-1.4 3.4-1.7 5.2l.1.7-1 2.5c-.6 1.3-1.1 2.6-1.5 4v.5c-1 2.3-2 4.7-2.8 7.2h-.6a.8.8 0 0 0-.5-.4h-.8c0-.4-.3-.7-.7-.7-3-.6-5.9-1-8.9-1.2-2.8-.1-5.8-.4-8.5.3l-.3.1a47.6 47.6 0 0 0-8.5.3h-1.4c-.8 0-1.3.7-.9 1.5l.5 1.2c-.2.8.1 1.5.5 2.2.3.5 1 .6 1.5.3h.5l.7-.1c2.3.2 4.5.2 6.8.2l2 .1h.3l17.4.7.5.2 10 .1c.1.2.4.4.7.4a40.8 40.8 0 0 0 5 .2c4 0 7.9 0 11.8-.3h.2c.1.2.4.4.7.3a49.8 49.8 0 0 1 6.5 0c.3 0 .6-.1.7-.3 4 0 8-.2 12-.6h.1l1.7-.1c.1.2.4.3.7.3h.6c1.2 0 2.4-.2 3.5-.6.4.6 1.2.8 1.6 0v-.2c1.3-3 2.5-6 3.5-9 .2-.5 0-1-.4-1.1a77 77 0 0 0 4-11.4v-.2c.3-1 .5-2 .4-3v-.4l1.3-3.4v-.2l1-2.4c.2-.4-.1-.8-.5-1zM326 217.3c-.5.2-1 .2-1.6.2l-2-.4h-.4a5.4 5.4 0 0 1-1.5-2l-.3-1a1 1 0 0 0-.4-.4v-.3c-.2-.6-.6-.8-1-.7.6-1.3 1-2.6 1.2-4v-.2c.6-1 1.5-1.8 2.6-2.2l2.4-.2h1.2c.5.2.8.4 1 .7a16.8 16.8 0 0 1 .7.8 1 1 0 0 0 .4 1.3h.3v.1l.6.2.3.3.2.3.1.4-.1 1.2-.3 2.2-.4.6c-.5.8-1.2 1.3-2 1.9l-1 1.2zm-226 8.3h-.1l-3 .1c-.2 0-.4.2-.5.4a54 54 0 0 0-10.3-.3 1 1 0 0 0-.8.4l-1.7.1-2.2-.5a1 1 0 0 0-1 .4l-7.4-.4c.4-.3.5-.8.2-1.3a52 52 0 0 1-1.5-3l-1.6-3.3c-.7-2-1.6-4-2.8-5.8l-.2-.1v-.2c-1-3-2.2-6-3.8-8.8a1 1 0 0 0-.1-.8l-1.6-3.2v-.6l-.1-.2A38 38 0 0 0 59 193l-2.8-5.3a54.4 54.4 0 0 1-.8-1.4.9.9 0 0 0-.5-.5c-.6-.7-1.3-1-2.1-.8l-.3.1c-1 0-1.9.1-2.8.4-.2-.2-.4-.4-.8-.4l-2.4.3a80 80 0 0 0-6.2 1h-2a76 76 0 0 0-13.5.4H24a.9.9 0 0 0-.5 0h-2.9l-4.3.3h-3.9l-2-.1H10a1 1 0 0 0-.3 0h-.4l-.1.1c-.5 0-1 .2-1.5.4a1 1 0 0 0-.7.6c-.3.2-.4.5-.4.9a1 1 0 0 0-.3 1l.1.5v.8c0 .2.2.4.3.5v.3a1 1 0 0 0-.2 1.2l1 2.3v.7c0 1.5.4 2.8 1 4.1v.3l.4.4.7 2.2v.1c.3 3.1 1.2 6 2.5 8.9v.2c0 .5 0 .8.2 1.2l.2.3.8 4.4c0 .3.2.4.3.5v.5l.2 1 .8 3.2.1.1a106.9 106.9 0 0 0 1.1 3.8l.4 1.6.2.4.1 1.3c0 .4.3.9.8 1 .1.3.4.5.8.5H21c.3 0 .6-.2.8-.4a63.9 63.9 0 0 0 10.5.2l.6.2c4.3.4 8.6.4 12.9.1.3 0 .6-.2.7-.4h7.8l6.1-.2c.4 0 .7-.2.8-.5h6.1l3.1-.1.6-.2 4.3-.1.5-.1c2.4 0 4.7 0 7.1-.2 2.2.1 4.3.2 6.5.5.4 0 .8-.3.9-.7l6.2-.4 7.3.3c.5 0 .8-.2 1-.5.1-.2.3-.5.3-.8 0-2.5-2.8-4.5-5.2-3.5zm-61.2-14c-.2.3-.2.7-.2 1.1l-.4.3-.3.5v.1a8 8 0 0 0-1.7.8l-.1.1h-.3l-3.2.2a1 1 0 0 0-.5.2l-1.1-.4h-.4a16.8 16.8 0 0 0-2-2.8l-.1-.8v-.2l-.3-.4-.6-1.6.2-.5.1-.3v-.6l.2-.7.5-.3c.3-.2.4-.5.4-.8l1.1-1 .2-.4 3-.5.2-.1.7-.1.6.4.2.1a16 16 0 0 1 2 1.9l1.3 1.6.3.3c0 .5.2 1 .4 1.4v.2l.3.7v.7c0 .3-.3.6-.5.9z"/>
    <path d="M82.7 212.4c.3-2.3.2-4.5-.4-6.7l-.2-4a1 1 0 0 0-.8-1l-.1-.3c.5-.8.3-1.8 0-2.7l-.8-4.6-1.3-6.8c-.2-2.5-.4-5-.4-7.6 0-.4-.2-.7-.5-.8l.5-3.4a26.3 26.3 0 0 0 .3-2.9v-.4c.2 0 .2-.1.3-.3l.4-.8a1 1 0 0 0-.1-1v-.1c.5-.3.7-1 .4-1.4l-1-1.6-.8-.8c-.4-.2-1-.2-1.4 0l-4 1.2c-.4.2-.8.7-.6 1.2 0 .3.3.5.5.6v.3a8 8 0 0 0 1.2 2.4c.2 1 .2 2.3.6 3.3 0 2 .1 4 .5 6a114.9 114.9 0 0 0-.6 6.6v2.9c0 .4.1.7.3 1-.3.2-.6.5-.6 1v5.3c-.2.1-.4.4-.4.8v3.5l-.1.2-1 8.4-.2 2-.2 2-.2 1.6c0 .3 0 .6.2.9a1 1 0 0 0 0 .7 14.7 14.7 0 0 0 2.5 5l.2.4c.1.2.4.3.6.4.5.3 1.2.2 1.4-.3l.2-.3.2-.2.4-.7c.2 0 .4-.1.5-.3a29.2 29.2 0 0 0 4-6.6l.6-1.2v-.9zm10-121.5a4 4 0 0 0 0-2.2 5 5 0 0 0-2.2-3 2 2 0 0 0-1-.5l-.8-.4-.7-.2h-.2c-.8-.6-1.6-1-2.6-.9a8 8 0 0 0-2.5.7c-.6 0-1.2 0-1.8.2-1 .4-2.2 1.3-2.5 2.4-.4.6-.7 1.4-1 2.1v.3c-2-3.3-5.7-5.5-9.7-4.4-4.4 1.3-8.2 5.7-7.3 10.4l-.3-.2a3 3 0 0 0-.8-.3l-.8-.5c-.9-.4-1.7-.7-2.7-.8-3.3-.2-6 2.2-7 5.2-.5 1.4-.6 3.3.4 4.6l.2.3v.4H48l-.3.1c-.4-.2-.9 0-1.2.2l-.8 1-.1.4a2 2 0 0 0-.3 1c-.7 1.2-1.2 3-.3 3.7l-.1 1-.3 1a10.4 10.4 0 0 0 .8 4.5l.6 1.5c.2.3.4.4.7.5.3 1 .9 1.8 1.6 2.4.5.4 1.2.7 1.8.6l-.8 2.1c-.3.5-.4.9-.3 1.3a11 11 0 0 0 .3 5c.1.6.5 1 .9 1.2l.7.9c0 .2.2.4.4.5a6 6 0 0 0 5.7 1.5c.4 0 .8-.2 1.1-.3-.1.9-.1 1.8.1 2.7.6 2.2 3 3.8 5.3 3 1-.3 1.9-1.3 2.5-2.3l.2.3c0 .2 0 .3.2.4a5 5 0 0 0 2.4 1.4 3 3 0 0 0 1.8.1c.2 0 .4-.1.5-.3h.4c.3.3.7.4 1.1.2l.5-.3c.5-.1 1-.2 1.3-.6l.3-.4c.9-.6 1.5-1.4 2-2.3 1-1.2 1.6-2.7 1.5-4.4a1 1 0 0 0-1.7-.7l-.7.4-2.4-.6a6 6 0 0 1-2.7-2.6V127c-.2-.8-.3-1.8-.8-2.6l.2-1.2c.2-.7.6-1.9 1.3-2.5.6 0 1 0 1.6-.3l.8 1.4c.3.5.9.6 1.4.4l1.6 2.4c.5.6 1 1 1.8 1 .7.1 1.6 0 2-.4 1.2-1.2-.5-2.9-1.2-3.8l-1.6-3-2.7-6.9a31 31 0 0 0 2.1-1l.7-.4a26.6 26.6 0 0 0 3.5-1.4h.1l.2-.2c1.2-.5 2.4-1.1 3.5-1.8l.6-.5c2.2-1 4-2.7 5.2-4.8l.2-.6c.5-1 1-2 1.2-3v-.7l.4-1.5c.2-1.6.2-3.2-.1-4.8zm239.8 24.3a2 2 0 0 0-.4-1.2v-5.2c-.1-.5-.3-1-.6-1.3l-.9-4.7c-.1-.7-.6-1.2-1.2-1.3a2 2 0 0 0-.3-.7l-1.7-2.7a2 2 0 0 0-1.3-.9l-.8-.8-.2-.7a2 2 0 0 0-2-1.4l-.2-.1-.9-.3a2 2 0 0 0-.7 0c-.2-.3-.5-.5-.9-.7l-.2-.2-1.2-1.4a2 2 0 0 0-2-.5h-.2l-.5-.5a2 2 0 0 0-2.5-.2l-1.2-.5h-.5c-.1-.2-.3-.2-.4-.3-.6-.3-1.2-.3-1.7 0h-.7c-.1-.2-.3-.3-.4-.3a6.2 6.2 0 0 0-4.5-.9l-.5.2c-.5 0-.8 0-1.2.2a6 6 0 0 0-4.5-.6c-.3 0-.6.3-.9.5-.6-.2-1.3-.3-2-.3-1.6 0-3 .7-3.8 2h-.4c-2 0-3.7 1.7-4.8 3.5-.6.5-1 1.2-1.5 1.9-1.6 1.7-2.5 4.2-1.6 6.5 0 .2-.3.3-.2.5v1.5l.2.4c-.1.2.4.3.3.6v1c.1.7.8 1.2 1.5 1.4l.1.3.3.4.8.5a8 8 0 0 0 2.7 2.5h.1l1 1 .2.1c.1.3.3.6.6.8 2.1 2 4.2 4 6.5 5.7l.2.1.2 1.1c.2 1.4 2.2 2 3.1 1h.2a4.1 4.1 0 0 1 .2.1l1.2.6 2.5 1.1.3.1.5 1.2v.3l.3.8a5 5 0 0 0-.1 2.5c-.3.8-1 1.6-1.5 2.3l-.4.6c-.7-.3-1.5-.3-2.1.4l-.5.4c-1 0-2 .8-2 2a69.4 69.4 0 0 1 0 8.8l-.8 6.1c-.3 1.8 1.3 3 3 2.3l4.4-2 .4-.1 2.3-.9.4.2c.5.1 1 0 1.5-.2l.7-.4.4-.4a91.2 91.2 0 0 0 6.8-2.5c.4.2.8.2 1.3 0 2.2-.8 4.4-1.7 6.4-2.7 1-.4 1.2-1.2 1-1.9l.3-.6c.4-.6.7-1.3.9-2.1l2.2-5.5c.3-.6.1-1.2-.2-1.6l-.1-.8.4-1.3.3-.6 1-5.2v-.2c.6-2.3.6-4.5.5-6.8z"/>
    <path d="M38.7 208.8c-.1-.7-.6-1.3-1.1-1.8l-.6-.6a2 2 0 0 0-.6-1c-.6-.4-1.2-.8-2-1-.5-.2-1.2-.3-1.8-.2-1.4.2-2.8.9-3.5 2.2l-.6 1.8c0 .8-.2 1.6 0 2.3.3.8.8 1.4 1.3 2 .4.3.8.7 1.4 1a4 4 0 0 0 2.5.7l.5.2c.6.1 1 0 1.6-.2a5.5 5.5 0 0 0 2.8-3.2c.2-.7.2-1.5.1-2.2zm290 5.8c.8-1 1.2-2.3 1.4-3.6 0-.5-.3-1.1-.6-1.4a2 2 0 0 0-1.2-.6l-.3-.2a2 2 0 0 0-1.5-2l-1.2-.3c-1.8-1.3-3.9.4-5 1.9a6 6 0 0 0 1.7 8.2c1 .6 2 .8 3 .4.7-.2 1.4-.5 2-.9l.7-.6c.2 0 .4-.2.5-.4l.5-.5z" class="st2"/>
    <path fill="#d5d4d3" d="M378.7 227.5c.3-1.2-10 0-11.4 0-9.7.5-19.5 1.5-29.2 2.8-.5 0-2.7-.4-3 0l-7.7.4-4.3-.2-16.4.2c-19-.5-38-1.1-57-2-9-.5-17.9-.8-26.8-.8-.3-.2-.6-.3-1-.3-3.8-.2-7.7 0-11.4.8-.2-.5-.6-.9-1.3-1-3.4-1-6.3 1.7-7 4.8-1 3.5-.8 7.4-.8 11 .1 6.7.8 13.3 2.1 20a2 2 0 0 0-.1 1.1l.9 5.3c0 .5.3.8.6 1-1 1.1-.9 3 .8 3.3 13.3 2.4 26.8 1.1 40.2 1 13.4-.3 26.6 1.7 40 2.8a358 358 0 0 0 70.7-1l4.8-.6c1.4-.2 14-1 15.3-1.6a4 4 0 0 0 1.6-1.2 2 2 0 0 0 1.8-1.9c.4-13.5-1-28.8-.6-42.3 0-.8-.3-1.3-.8-1.6zm-203.1 34.6v-3.5a38 38 0 0 0-1.1-13v-4.8l-.2-.7c.3-1.4.1-2.7-.3-3.8v-1.6l-.6-1.5v-1.5c0-1.1-1-2-2.2-2l-3.3-.2c-2-.4-4.2-.4-6.3-.4H152c-12.5 0-25 .4-37.6.9l-12.6.5h-2.9c-.2-.3-.6-.5-1.3-.5a403.4 403.4 0 0 0-15.5 1l-.7.4c-6.3.2-12.7-.1-19 .3l-.5-.1-6.2.2c-.5 0-.8.1-1 .4h-2.2c-2.5 0-5 .2-7.5.4h-3.2a35 35 0 0 0-5.6.2h-3.8a169.3 169.3 0 0 0-10.8.1h-6.1c-.2-.1-.5-.3-1-.3H7.4a2 2 0 0 0-.6-.1l-3.6-.1h-.3l-8.4.1c-1.6 0-2 1.9-1.1 2.7l3 36a2 2 0 0 0 1.3 1.7 5.8 5.8 0 0 0 3.4 3c3 1.2 6.8.7 10 .6l11.8-.2 23.5-.3 93.6-1.4 13.4-.2c4 0 8 .1 12-.3 3.5-.4 7-1.5 9-4.5.6-.8 1-1.7 1.1-2.7.3-.3.5-.7.6-1.2 0-1.2-.1-2.4-.4-3.6z"/>
    <path fill="#f39ca8" d="M319.5 156h.1zm28.1 34.6a20 20 0 0 0-2.8-6.8c-.9-2.2-2-4.2-3.3-6.2l-.1-.3-.2-.5a38.5 38.5 0 0 0-10.5-11.8 44.6 44.6 0 0 0-2.3-1.8c-2-1.8-4-3.3-6.4-4.5a2 2 0 0 0-1.3-.2l.2-.3c.2-.5.3-1 0-1.5s-.8-.7-1.3-.7h-.1a8.8 8.8 0 0 1-1.5-.4l-1-.3-.6-.3-1.5-1-.2-.1-.4-.3-.7-.7c-.5-.6-1.6-.6-2.1 0-.4.4-.5.9-.4 1.4a4 4 0 0 0-2.7 2.1c-1.4.3-2.7.8-4.2.8-1.7 0-3.7-.6-5.7-1l-.7-.4c-.7 0-1.2-.4-1.6-1-.5-.8-1.7-1-2.4-.3l-1 1-5.5 1.7a22 22 0 0 0-3.8-.4h-1c-.2 0-.5 0-.8.2-2.2-.5-4.5-.5-7-.4l-7.2.1a60.2 60.2 0 0 0-13.4.3c-2.7-.6-5.3-1-8-1-.2-.3-.4-.5-.8-.6l-4.4-1.1c-.3-.1-.5 0-.8 0l-3.8-2.3-9.1-5.6-.7-.2c-7.4-4.5-15.3-8.3-23.4-11.5-.5-.3-1.4.1-1.6.7l-.8 1.4a1 1 0 0 0-.5.6h-.1a12.1 12.1 0 0 0-3.9 6c-.7.5-1 1.5-1 2.7l-.2.2-.2.4c-.2.6-.6 1.2-.6 2-.1 1 .5 1.5 1.2 2l1.5 1.2c0 .5.2 1 .7 1.3a76.7 76.7 0 0 0 3 2.5 72.8 72.8 0 0 0 15.8 10.6c.1.3.3.6.6.8a49 49 0 0 0 13 6.5c3 1.5 6 2.7 9.2 3.8.5.2 1 0 1.2-.2l2.9.7a121.1 121.1 0 0 1 1.8 1l1.7.7h1a31.8 31.8 0 0 0 2.6.5 18.5 18.5 0 0 0 8.3 1.4 152.8 152.8 0 0 1 13.6 1c.6 0 1-.3 1.2-.6 2 0 4-.1 6-.4-.5 1-.8 2-1.1 3l-.6 1a32.7 32.7 0 0 0-2 10.5c0 1 .3 1.8.8 2.4.2 1.1.7 2.2 1.2 3.3l.8 1.6a54 54 0 0 1 1 4.2c.2 2.4.2 4.9.3 7.3.1 2.3.3 4.7-.6 7-.3.7.3 1.7 1 1.8l5.7 1h.7c.7.3 1.7.1 2-.9 1.7-7.4 4.2-14.6 6.5-21.9v-.5a662 662 0 0 0 1.5-4.7 9 9 0 0 1 1.9-2.2c1.3-1.1 3-1.8 4.8-2.3l10-.6a407.8 407.8 0 0 0 10.6-.4c4.2-.2 8.5-.2 12.7-.2h.1l3.8.1.8.1.6.1 1.8.4h.1l.7.1.4.1-.1-.1.1.1c.1 0 .1 0 0 0 1 1.3 3 .4 2.6-1.2zm-2.6 1.3z"/>
    <path d="M275 121.3h.2l-.3.2c0 .2-.3.1-.2.3v.1h-.3l-.3.2c-.1 0-.2.3-.1.5v.2c-.2.3 0 .5 0 .8l.1.3c0 .3.1.3.3.3l.5.2.2.2h.2c.1-.1.3-.2.4 0h.1l.2.2c0 .2.2.3.4.2h.6l.5.1.6.1 1 .4h.4c0 .1 0 0 .1 0 .2-.2.2-.4 0-.4l-1.1-.5-1.3-.4c-.5 0-.9-.3-1.4-.4h-.4a1 1 0 0 1-.6-.4l-.1-.2c-.2-.2 0-.4.2-.7l.4-.4.8-.7c.4-.5 1-1 1.3-1.5l.2-.2 2.7-2.6 1.8-1.7 1.2-1.3.9-1 1.5-1.4.2-.2v-.2l-.2-.3h-.4v.1l-.1.1c-.2 0-.2.1-.3.2l-.6.5s-.2.1-.1.3l-.4.1c0 .1-.3.2-.2.3 0 .2-.1.3-.3.3l-.3.1-.5.6-.5.4c-.2.2-.4.3-.5.6 0 .2-.2.3-.4.5l-.1.2h.1v.2h-.4l-.3.2-.2.3h-.1c-.3.1-.2.4-.4.5v.2c-.3 0-.4.1-.5.3l-.1.1v.2h-.3c-.2 0-.3.2-.2.3.1 0 0 .1 0 .2l-.1.2s-.1.1-.2 0h-.2l-.6.5-1.2 1-.2.4c0 .2-.1.2-.2.3l-.8.8c-.2.1-.3.3-.3.5 0-.2.2-.3.3-.3zm3-3c0 .1.1.2 0 .2v.1h-.2v-.1l.1-.1h.2zm3.6-3.3c0 .1 0 .2-.1.1v-.1h.1zm-1.2 1v.2-.1zm7.2 26.3v-.1l.5.2c.1 0 .2.2.4 0h.1l.2.1c.1.2.3.1.4.2l.5-.1.2-.1h1c.1.3.2.2.4 0h.9l.2-.3c.1 0 .2-.2.5-.2h.5c.2.1.4 0 .6-.1l.2-.3.3-.2c.3 0 .5-.2.7-.3l.6-.5 1-.8c.3 0 .4-.2.5-.4v-.1c0-.3-.2-.4-.4-.2l-1.2.8-1.5.9-1.6.6-.7.2a3 3 0 0 1-1 .1h-1.8a9.2 9.2 0 0 1-2-.5l-2.4-1-.2-.2a10.8 10.8 0 0 1-4.3-6.6 17 17 0 0 1-.2-7.1l-.1-.2s-.3-.1-.4 0l-.3.2v.7c-.2.4-.2.7-.2 1v.6l-.1.3v.6c.2.2.2.3 0 .5v1.4l.1.9c0 .3 0 .7.2 1 .2.2.2.5.3.8l.1.4h.1v-.2l.2.2v.2c-.2 0-.2.1-.2.2l.2.5.1.5.1.1c0 .3.3.5.4.7h.2v.2c0 .3.1.5.3.7 0 0 .1.2.2.1.1 0 .2 0 .2.2v.3c0 .1.2.3.4.3 0-.2.1 0 .2 0l.2.2c.1.1.2.2.1.3v.2l.7.8a7 7 0 0 0 1.8 1.3l.6.2.4.2 1.5.6h.7-.4zm-4.9-3h.1l.2.3h-.4v-.2zm-3.2-5.7h.1v.3l-.1-.2v-.1zm.6 2 .1.2-.1-.2z"/>
    <path d="M288.6 132.6v-.1h.2c0-.2.2 0 .2-.2h.2c0 .1.1 0 .2 0l.1-.2v-.1l.4-.2h.2c.1.1.1 0 .1 0 0-.3.1-.3.2-.4h.2v-.2l.1-.2h.3c.1 0 .2 0 .2-.2v-.3l.1-.2c.2 0 .2-.1.3-.2l.1-.4.4-.5.2-.3c-.2-.3-.4-.4-.5-.3l-.5.6-.4.6-.6.7-.2.2a1 1 0 0 1-.4.4h-.2l-.6.4-.3.2-.7.2a9 9 0 0 0-1.3.5c-.8.1-1.6.2-2.4.1h-1.5l-1.1-.3c-.3 0-.5 0-.8-.2l-1.1-.5-.2-.1h-.1l-.2.4v.2h.1c0 .2.1.2.2.2l.4.3h.3l.1.2c.1 0 .2.2.3 0 .1 0 .2 0 .2.2l.2.1.5.1.4.1c.2.1.4.2.5.1h.7v-.1h-.1v-.1h.1c0 .2.1.3.2.2l.2.1h.3c.2.1.3 0 .4 0v-.1h.2c0 .2.2.1.3.1h.1l.1-.2.2.2c0 .1.2.1.2 0v-.2h.2c0-.1.1-.1.1 0s.1.2.2.1h.5c.4.1.7 0 1-.1.1 0 .2 0 .3-.2l.2-.1.7-.2c.2 0 .3-.1.3-.3 0 .1 0 .2-.2.2zm-2.7.6c0-.2.1-.1.2 0l-.2.1v-.1zm-3.3 0v-.1h.2-.1zm1 .1h.2-.1z"/>
    <path d="M287.7 131.4h.2c0-.1.1.1.1-.1h.2c0 .2.1 0 .2.1l.2-.2.3-.2.2.1c0 .2.1.1.1 0 0-.2.2-.2.3-.2h.1v-.1c.1-.1.1-.3.2-.2h.3c.1.1.2 0 .2 0l.1-.3.1-.1c.2 0 .2 0 .3-.2l.2-.3c.2 0 .3-.2.5-.3.1 0 .2 0 .2-.2 0-.3-.2-.5-.3-.4l-.6.3-.5.5-.7.4-.3.1-.4.2h-.2l-.6.2h-.3l-.6.2-1.1.1h-.1l-2.2-.1-1.4-.3-1-.2c-.2 0-.4 0-.7-.2l-1-.5h-.2l-.2.4v.2h.1l.1.2.4.3h.3l.1.2h.3c0-.1.1 0 .2 0l.1.2.4.1.4.1c.1.1.3.2.4.1h.6v-.1h.1l.1.2h.2l.2.1c.2.1.3 0 .4 0 .1-.1.1-.1.2 0l.2.1h.1c0-.2.1-.2.2-.2v.2c.1.2.2.2.3 0v-.1l.2-.1v.1l.2.2h.4c.3.2.7 0 1 0h.2l.2-.1h.7l.3-.2h-.2zm-2.5.1c0-.1.1 0 .2 0v.1h-.2zm-2.9-.4h.1c0 .1 0 0 0 0h-.1zm.9.3v-.1h.1-.1z"/>
    <path d="M285.6 135.3v.1h-.1s-.2-.1-.1.1h-.2c0-.2-.1 0-.2-.1v.2h-.1l-.3.2-.1-.1c0-.2-.1-.1-.1 0l-.3.1s0-.1 0 0l-.2.1c0 .1 0 .2-.1.1h-.1l-.1-.1h-.3l-.1.2h-.4l-.4.1-.5-.1h-.4c-.2.2-.2.4-.1.4l.7.3h.9l.8-.1h.3c.2-.2.3-.2.5-.2h.2l.6-.2.3-.1.5-.2c.4-.2.7-.3 1-.6h.1a9.5 9.5 0 0 0 2.6-2.4l.6-.8.4-.6.6-1h.1v-.2l-.3-.2h-.3v.1h-.2c0 .2-.2.3-.3.4v.2h-.2c0 .1-.2.2 0 .3 0 .1 0 .2-.2.2h-.2l-.2.3c0 .2 0 .3-.2.3l-.2.4s0 .2-.2.3v.1h.1v.2h-.1c-.1-.1-.2-.1-.2 0h-.1l-.2.1v.1c-.2 0-.1.2-.2.3v.1h-.3v.4h-.2c-.1-.1-.2 0-.1.1s0 .1 0 .2 0 .1-.1 0h-.2l-.4.1-.6.4-.2.2v.1l-.6.2c-.1 0-.2 0-.2.2l.1-.1zm2-1v.2h-.2v-.2h.1zm1.8-1.7s0 .1 0 0h-.1zm-.6.6zm16.2-4.5-.2.3s-.3 0 0 .2h-.1l-.2.1-.2.1-.1.3v.2c-.2 0-.2.2-.3.3h-.3c-.1-.1-.2 0-.2.1 0 .2-.1.3-.3.3h-.2v.2c0 .2-.1.3-.3.3h-.7l-.2.3h-.3l-.4.2-.6.1h-1l-.4-.2-.2.1v.5l1.4.3c.4 0 1 0 1.4-.2.4-.2 1-.3 1.3-.6l.5-.2.6-.5c.1 0 .2 0 .3-.2l.8-.8.3-.4.5-1c.3-.5.4-1.2.4-1.9v-.2c0-1.2-.4-2.4-1-3.5a5 5 0 0 0-3.7-2h-1.4a6 6 0 0 0-2 .4l-.3.2v.2s0 .3.2.3l.3.1.1-.1h.3l.7-.2s.2 0 .2-.2c.2.2.2.2.3.1.1 0 .3.1.4 0 0-.2.2-.2.3 0h.9l.5.2.6.2c.2 0 .4 0 .5.2h.3v-.1h.2v.3l.2.2.2.3.5.4h.1l.1.5.1.1h.2v.3c-.2.1 0 .3 0 .3.2-.2.2 0 .3 0v.2c.1 0 .1 0 0 .1l-.1.2v2.5l-.4.9c0 .1-.1.2 0 .4-.1 0 0-.1 0-.2zm.5-3.4c.2 0 .1.2 0 .2l-.1-.1v-.1zM303 122h.2-.2zm1.1.8h.1v.1z"/>
    <path d="m330.3 129.5.2-.5-.1.6-.7 2.2c-.1.7-.7 1.7-.6 2.3l-.2.6-.5 1-.8 2.3-.8 2.2-.3.8c-.8 1-2 1.6-3.2 2l-1.6.4c-.7 0-1.4.3-2 .6-1 .5-2.3 1-3.5 1.3l-1.5.3-1.2.6c-.8.4-1.5.7-2.6 1l-1.3.3-1.5.4-3.3 1-1.8.9-1.9.6c-.6.2-1.4.3-1.8-.2-.4-.4-.4-1.1-.4-1.8l.3-4.5.6-7.8.3-3.6v-.7c-.3-.6-.5 0-.7 1.4l-.8 9.3-.4 5.1v1.4c0 .4 0 1 .4 1.6.3.5 1 .8 1.6.8.6 0 1-.3 1.4-.4l10.3-3.4 3.7-1.3 5.8-2 2.3-.7a6.6 6.6 0 0 0 3.6-2.6c.8-1.3 1.1-2.8 1.6-4.1a128.5 128.5 0 0 0 3.4-12c1-5.1 1.4-10.4.3-15.5l-.3-1.6a23.7 23.7 0 0 0-13.4-16.4c-2.2-1-4.5-1.8-6.9-2.4a49 49 0 0 0-9.6-1.2c-3.2 0-6.5.3-9.6 1.3a16 16 0 0 0-6 3.4c-1.7 1.6-3 3.7-3.8 5.9a11 11 0 0 0-.5 5.1 11 11 0 0 0 2.2 4.7c3.3 4.3 8.4 6.4 11.5 10.3l.8 1.2.7 1.2.3.8c.3.4.5.5.5 0-.1-.4-.1-1-.4-1.5l-.4-.8-.7-1-.7-1a8 8 0 0 0-.7-.8c-1.5-1.4-3-2.6-4.7-3.8l-2-1.4-.5-.4-1.4-1.4c-.8-.7-1.5-1.7-2.1-2.3a5 5 0 0 1-1.2-2.4l-.2-1-.2-1.2a11 11 0 0 1 1-5c.6-1.6 1.5-3 2.7-4.1a17.4 17.4 0 0 1 9-4.5c.8 0 1.5-.2 2.3-.3h.1l-.2-.1h-.9a24 24 0 0 1 2.3 0h1.2l2.5.1 2.7.2 1 .1 4.5.7h.5l.9.2c1 .5 2.3.9 3.5 1.3l1.3.5 1.4.4c.6.3 1 .6 1.2.9.3.3 1.6 1 2.2 1.3-.4-.4.4 0 .8.4l1.3 1c.5.4.8.7.8 1l.7.9c1.3 1.4 2.3 3 3.1 4.8 1.7 3.4 2.6 7.3 2.9 11.1l.1 3.3v2.5a76 76 0 0 1-1.6 8.3 70 70 0 0 0-.3 1.8zM327.4 99l.4.3c.4.4.6.9.8 1.3v.1l-.2-.2-.8-1.1-.2-.5zm-34.3-9.3.3-.1 1.3-.4-.2.2c-.2 0-.5 0-.8.2l-.6.1zm11.9-1h-.1.2l1.2.2h.2-1l-.5-.1z"/>
    <path d="M305.5 157.4h-.1l.1-.1h.5c.1-.1.4 0 .5-.2h.4l.5-.1c.3 0 .4-.2.5-.4l.1-.1.8-.5h.4c.2 0 .3 0 .4-.3.1-.2.3-.4.6-.5l.3-.1v-.4c.2-.1.2-.3.5-.4l.2-.2.3-.2c.2 0 .4-.2.5-.5l.1-.5.2-.3c.2-.2.4-.5.4-.8l.4-.9.5-1.5.2-.7v-.1c-.3-.2-.5-.1-.6.1-.1.6-.4 1.1-.6 1.7l-.9 1.8c-.3.6-.9 1.1-1.3 1.7l-.6.5a4 4 0 0 1-1 .8l-.4.2-1.6.8-.8.2c-.5.2-1 .3-1.6.3h-3.2l-.3-.1a11 11 0 0 1-2.7-1.1 6 6 0 0 1-2.2-1.9c-.7-1-1-2.3-1-3.6l-.1-2.8V141c0-.1-.3-.1-.4 0l-.3.3.1.1v.3l-.1.4v2c-.1.1-.2.3-.1.4v1.3l-.1.5v3.4l.2 1 .1.5h.1v-.2l.1.4v.1c-.1 0-.2.2-.1.3v.6l.3.6v.2l.6.8.1.1c.1 0 .2 0 .2.2 0 .3.2.5.4.7l.3.2h.3l.2.4c0 .2.3.4.5.4 0-.3.1-.1.2-.1l.4.1c.1 0 .2.1.2.3l.1.2 1.2.6a7.8 7.8 0 0 0 3.3.6h.5l2-.1c.3 0 .5-.1.8-.3l-.5.1zm-6.8-.9h.1c.2 0 .2 0 .3.2h-.4v-.2zm-4.4-6.4h.1v.3h-.1v-.3zm.4 2.6h.1v.2-.2z"/>
    <path d="M303.8 159.9v-.1l.2-.2v-.3l.1-.1v.6c0 .1 0 0 0 0h.2v.4l.2.3a3.2 3.2 0 0 1 .3 1c-.1.4 0 .5.2.7.3.2.5.6.7.9l.2.5.4.1.7.6.3.3.3.4c.1.3.5.5.8.6l.6.2c.2 0 .4 0 .6.2l1.1.4c.5 0 1 0 1.4.2h2.2a4 4 0 0 0 1-.2l.3-.1c0-.3-.2-.5-.5-.4-.9.2-1.7.2-2.5 0-1 0-1.9-.3-2.8-.6a8 8 0 0 1-2.5-1.6l-.8-.8-1-1.5-.2-.6-.2-.6-.1-.3a11.7 11.7 0 0 1-.4-2.2v-.5l-.2.3-.4.6-.8 1.3-.4.6-.3.5-2.9 3.5c0 .2-.2.3-.3.4-1 1-2 2-3.2 2.8-.6.4-1.2.8-1.8.9-.6 0-1.3-.1-1.8-.5-.6-.6-1-1.4-1.2-2.3-.3-.8-.4-1.7-.5-2.7l-.6-4-.2-1.5v-.2s-.1-.2 0-.2l.5-.2a16.2 16.2 0 0 0 4.8-2.7l.2-.2c0-.2 0-.4-.3-.4l-.4.1-.2.2-.3.2-.6.3-1.5.9c-.2.1-.5.2-.6.4 0 0-.1.1-.1 0-.2 0-.4 0-.6.2-.3 0-.7.1-.9.3-.2.2-.3.3-.5.3l-.3.1v.3c-.2.2-.1.8 0 1 0 .5 0 1 .2 1.5l.1 1.6.3 1.6.2 1.5.2.6v-.3l.2.5v.2c-.1.1-.2.2 0 .4v.8l.4.8.2.3c.1.5.6.8 1 1.2h.2l.2.2c.2.4.8.6 1.3.6h.5c0-.2.2-.2.4-.3h.6c.2.1.7-.2.8-.4-.3 0 0-.2 0-.3l.5-.3.4-.2h.3l1.4-1.2a19.7 19.7 0 0 0 3.6-4l1.6-2 .2-.6c0 .2 0 .2-.2.3zm-6.3 7 .1-.2c0-.2.2-.2.4-.3v.2l-.3.3h-.1zm-7.4-4.3v.1c.1.2.1.3 0 .4v-.5zm.7 3.6.2.4-.2-.2v-.2z"/>
    <path d="M319.1 162.5h.1c0 .2-.1.3-.2.3 0 .2-.3.2 0 .4l-.1.1-.2.1c-.2 0-.1.2-.2.3-.2 0-.1.2-.1.3v.2l-.3.5-.3.1c-.2 0-.2.1-.2.2 0 .3-.1.4-.3.5h-.2v.3c0 .2 0 .4-.3.4h-.4c-.2 0-.4 0-.5.2l-.2.3c0 .1-.1.2-.3.2l-.6.1a2 2 0 0 1-.7.2c-.4 0-.8 0-1.2-.3l-.5-.3h-.2c-.2.2-.3.4 0 .6.4.3 1 .5 1.6.6.6 0 1.3 0 1.8-.2.6-.3 1.2-.5 1.7-1l.4-.4.7-.8.2-.3.7-1.2.3-.6a18.1 18.1 0 0 0 1.3-3.5v-.2l.6-2.2.1-.6.1-.8v-.2h-.5l-.4-.1-.3-.1a18 18 0 0 1-4.7-1.7l-1.3-.8-1.8-1.6-.3-.3h-.1l-.4.2v.4h.2s.1.1 0 .2l.3.3.6.7c.1 0 .2.2.4.1h.1l.1.4c.2.1.3.3.5.3s.3 0 .4.2l.2.4c.3 0 .5.3.8.4.3 0 .5.2.7.4l.9.3.7.2.4.1v-.1h-.1v-.1h.3v.2s0 .2.2.2l.4.1.4.2h.1c.3.2.5 0 .8 0 0 .1 0 0 0 0h.2c.1.3.1.2.2.2h.1c.1-.1.1 0 .1 0l-.2.2c-.1 0 0 0 0 .1.2 0 .2.1.2.2v.3l-.1.1-.2.2c0 .3-.2.5-.3.8l-.5 1.7v.5l-.2.4-.5 1.2-.1.7.1-.4zm1.6-4.6v.3h-.1v-.3zm-3.2-2.5h.2v.1h-.2zm1.8.7h.2-.2zm-107 8.5-.5-.4.7.5 2.2 1.4c.8.4 1.7 1.3 2.4 1.4l.8.4 1 .8 2.5 1.4c1 .7 1.8 1 2.6 1.3l1 .3c1.4.8 2.8 1.4 4.2 2l1.7 1c.7.5 1.5.7 2.3 1 1.3.3 2.7.9 4.1 1.4l1.7.7 1.5.3c1 .3 2 .5 3.2 1a25.4 25.4 0 0 1 3.2 1l3.9 1 2.4.2 2.3.3c1.6.4 3.1.5 4.7.7l5.3.3a109.5 109.5 0 0 0 14.1-.6c.6-.3-.1-.5-1.7-.3a86.2 86.2 0 0 1-22.7-.8 97.9 97.9 0 0 1-23.3-6.7l-2.5-1.1a112 112 0 0 1-9.2-4.6l-4.1-2.4a139 139 0 0 1-15.3-10.8l-3.6-2.9-1.7-1.4c-.6-.5-1.2-1-1.2-1.6-.1-.6.1-1.1.3-1.7a37.9 37.9 0 0 1 5.4-10.2l1.2-1.5.6-.7.5-.6 4.1 1.7 4.3 1.7a87.5 87.5 0 0 1 18 9.3c3.2 2.1 6.2 4.4 9.7 6a42.3 42.3 0 0 0 15.7 3.6c4 .2 7.9.2 11.8.2h22.6c.6-.1.8-.3.2-.5l-1.8-.2h-15.6l-2.3-.1h-4c-1.1.2-2.2.1-3.2 0a120.4 120.4 0 0 1-15-1.3c-2.2-.4-4.3-1-6.3-1.7a26 26 0 0 1-5-2.5l-2.3-1.4h-.2l.1.1.8.5.2.1v.1a80.6 80.6 0 0 1-2.3-1.6c0-.2-.5-.5-1-.9-1-.5-1.7-1.1-2.5-1.7l-2.8-1.7-1-.6c-1.6-1-3.2-1.6-4.8-2.5l-.6-.2c-.3 0-.7-.2-1-.4a24.1 24.1 0 0 0-5.5-2.6l-1.6-.5-1.6-.9c-.4-.3-2.1-1-2.9-1.1.6.4-.4 0-1-.2l-1.9-.8a9.5 9.5 0 0 1-1.6-.7l-.6.5-.6.7a43.4 43.4 0 0 0-7.1 12c-.2.6-.5 1.1-.5 2 0 .3 0 .7.2 1.1.1.4.4.7.7 1l2.7 2.3 3 2.4 2.4 1.8a173.1 173.1 0 0 0 10 7zm-12.6-27.8-.3.5c-.3.6-.7 1-1.1 1.5 0 .1-.1.1-.1 0l.1-.3 1-1.3.4-.4zm39 16-.4-.1-1.4-.8h.2l1 .5.5.3zm-12-7.6h-.1l-1.3-.8-.2-.1.3.1.8.5c.2 0 .3.2.5.3z"/>
    <path d="M278.5 206.7v-.1l.1.2v.5c.2.2 0 .5.2.6v1.1c0 .2 0 .4.2.6v.2l.2 1v.4c-.3.2-.2.4-.1.6.2.2.2.6.1.9 0 .1-.1.3 0 .4l.1.3c0 .2.2.4 0 .7v.7a1 1 0 0 0-.1.9l.1.5v4.8l-.1.9v.2c.3.1.5 0 .5-.4.1-.7.3-1.5.3-2.3v-8.1l-.1-.6-.3-2.2-.1-1a25.1 25.1 0 0 0-2-6.3 19 19 0 0 1-1.1-7.2 26.5 26.5 0 0 1 1.5-8.1 34.5 34.5 0 0 1 3-6.9c-.1-.1-.3-.3-.4-.2l-.4.2v.3l-.2.2-.4.5-.7 1.4c0 .2-.2.4-.1.6l-.1.1c-.2 0-.3.3-.3.5-.1.2-.4.5-.3.8 0 .2 0 .5-.3.6l-.3.6-.5 1.3c0 .4-.2.9-.4 1.3l-.3 1.4-.2 1.3v.6-.2h.1v.4l-.1.1c-.1 0-.2.1-.2.3l-.1.7-.1.7v.3c-.2.4 0 .8 0 1.2v.3c-.2.3-.1.7-.1 1v.4c.2 0 .2.2.2.4l-.1.4c-.2.1-.1.5 0 .7.2-.2.2 0 .3.1v.5c.1.1.2.3 0 .3v.4l.2 1.5 1 3 .4.7.3.6.5 2c0 .4.2.7.4 1l-.2-.6zm-2.4-7.8h.2v.5h-.1l-.1-.4v-.1zm.2-9.8.1.1-.1.4v-.5zm-.5 3v.4-.3zm66.2-14v-.1l.2.1.2.5c.2.1 0 .5.4.5v.2l.1.3.2.5c0 .3.2.4.4.5l.2.2.5 1v.3c0 .3 0 .4.2.5.3.2.4.6.5.9v.4l.3.2c.2.2.4.3.4.6v.4c.1.1 0 .2 0 .4 0 .3.1.6.3.8l.4.4.2.5c0 .4.1.7.3 1l.4 1.1.4 2 .2.9.1.2c.3 0 .5-.1.4-.5l-.4-2.4-.8-2.5-1-2.7-.4-.9-.7-1.4-.2-.6-1-2-.6-1a49.6 49.6 0 0 0-3.4-5l-.2-.3a49.6 49.6 0 0 0-11.6-11l-2.2-1.4-3.5-2-.6-.3h-.3l-.2.3.3.4h.2l.3.2c0 .2.3.2.4.3l1.3.8c.2.1.4.3.7.2 0 .3.3.4.4.5l.8.4c.3 0 .4.1.6.3 0 .2.2.3.4.5l1.2.7 1 .7 1.2.9 1 .7.5.3v-.2h-.1l.4.2v.2s0 .2.2.3l.4.4.5.5.2.2c.2.3.6.5 1 .7l.2.2c.1.4.4.6.6.8l.3.3.4.1c0 .1.1.3 0 .4 0 .2.3.5.6.5 0-.2.1 0 .2 0l.4.3v.3c0 .1 0 .3.2.4l.9 1.2 1.8 2.4.5.6.4.5 1.1 1.9.7.8-.3-.5zm-4.6-6.7h.1c.2.1.2.3.3.4h-.2l-.2-.2v-.2zm-6.9-6.7h.1c.1 0 .3 0 .3.2h-.1l-.2-.1v-.1zm2.3 2 .3.2h-.2v-.2zm-29.4 13.7h.1v.5c0 .1-.2.3 0 .4v.4c-.2.1 0 .3-.1.5l.1.4.1.2c0 .3.1.5 0 .8v.3c-.2.1-.1.3 0 .4v1l.2.3c0 .1.2.3.1.5v.3l-.1.3v.6l.2.4c0 .1.1.3 0 .4l.1.8.2.8.1 1.6v.6l.2.2c.2 0 .4 0 .4-.3V190l-.2-2-.2-2-.1-.8a6 6 0 0 1-.1-1.2v-.5l-.1-1.7v-2.4c0-1 0-2-.2-3v-9.6l-.2-2.6v-5l-.1-.5v-.2h-.5l-.2.3v2.5l-.1.5v.6c.2.2.2.4 0 .5v3.7c.2.3.2.6.2.9v.4h.1v-.1l.1.3v.1c-.2 0-.2.1-.2.2v1.3c-.1.3 0 .5 0 .8l.1.1c.1.1.1.2 0 .2-.1.2-.1.5 0 .8v.2l.1.3-.1.3c-.2 0-.2.4 0 .5.2-.1.1 0 .2.1v.7c-.2 0-.2.2-.2.3l-.1 1.1v2.3l.1.6v2.2c0 .3 0 .5.2.8v-.5zm0-6.2c.2.2.1.3 0 .4l-.1-.3.1-.1zm-.1-7.3v.3-.3zm0 2.3v.3-.2z"/>
    <path d="M333 191.8h-.5 2.7c.6 0 1.6.3 2.1 0h.7l1 .2c.6.2 1.5.2 2.2.2 1 .2 1.6.1 2.2 0h.8c1.2.2 2.5.1 3.6.3l1.4.4c.5.4 1 .5 1.6.8.9.3 1.6 1.2 1.8 2.3l-.1 1.2v1.1a6 6 0 0 1-.6 2.5l-.4 1.1-.5 1.4c-.4.8-.7 1.9-1 2.9l-.3 1.8-.5 1.7-1 3.6-1.2 4-2 6.7-1 3.1v.7c0 .6.4 0 .8-1.1l2.5-8 2.7-9 2.8-9.5c.3-1 .7-2.3.6-3.5 0-1-.4-2-1-2.8a5.6 5.6 0 0 0-2.5-1.6l-2-.5c-2.8-.3-5.4-.4-8-.5a117 117 0 0 0-11.3-.4c-4.7 0-9.4.1-14.1.5l-1.4.1c-4.4.3-8.8.7-13.2 1.3-.5.1-1.1.3-1.6.7-.4.4-.7 1-1 1.5l-1 3.1-2 6.3L289 221l-1 3.4-1.9-.2-2-.3a120.6 120.6 0 0 0-24-.8l-1.8.1-2.3.2v.1l1 3 .3.7c.2.5.4.5.4 0 0-.4 0-.8-.2-1.3l-.2-.8-.2-.5v-.5h.4l.7-.1 5.3-.3c.9 0 1.8 0 2.4-.2h.5c.4.2 1.2.2 1.8.2h3c.9-.2 1.7-.1 2.5 0a158.4 158.4 0 0 1 11.7 1.2l3.2.7.5-1.7.3-1.1 1.3-4.2.6-2v-.2l-.1.1-.2.7-.1.2.4-1.5c0-.3.2-.5.3-.6 0 0 .3-.4.4-1l.7-2.1.8-2.4.3-.9c.5-1.3.7-2.6 1.2-4v-.5l.3-.7c.5-.9.8-2.1 1.2-3.3l.3-1.2.3-1.3.6-1.3.8-2c-.4.3 0-.3.3-.6a3 3 0 0 1 1.3-.6c.5-.1.9-.2 1 0h1.2a186 186 0 0 1 16-1.2 59.6 59.6 0 0 0 5.3-.3 165.9 165.9 0 0 1 9.4 0zm-29 1.2.4-.1c.5-.2 1-.2 1.4-.1h.1l-.2.1-1.3.2-.4-.1zm-14.3 28v-.3c.1-.4.2-.9.4-1.1v.2l-.2.8-.2.4zm3.4-10.4.3-1.2v-.2.3c0 .2 0 .5-.2.7l-.1.4z"/>
    <path d="M302.6 231h-.7.9l2.8.1c.9 0 2.2.2 3 0a15 15 0 0 1 2.2.1c1 .2 2 0 3 .1l3-.1 1.2-.1 5-.1h2c1 .2 1.8 0 2.7 0 1.4-.2 3-.3 4.6-.3h2c.6 0 1-.2 1.5-.3 1.1 0 2.1-.3 3.6-.2h3.6l4.2-.3 2.5-.4 2.4-.2c1.8 0 3.4-.3 5-.5l5.7-.6 9.6-1 4.4-.6a6 6 0 0 0 1-.2c.6-.3-.2-.4-2-.2-3.7.5-7.6.8-11.4 1.2l-12.8 1.2-13.4 1a871.6 871.6 0 0 1-12.4.6h-3c-3.6.2-7.2.3-10.9.2h-5l-10.4-.3-19.3-.9-1.9-.1-36-2c-8-.3-16-.5-23.9-.5h-4.3c-1.4 0-2.9 0-4.3.3s-2.9.9-4 2a7.6 7.6 0 0 0-2 3.9 23 23 0 0 0-.3 6.3l.4 6.3 1.6 19.3.3 3.5.2 1.1c.2.7.4.8.5.1v-1.8l-.1-1-.2-1.6c0-.8 0-1.8-.2-2.7l-.5-7.4-.4-3.1v-3.2l-.4-4c-.3-1.3-.3-2.4-.3-3.5v-3c-.1-2.2-.1-4.5.6-6.5a6 6 0 0 1 1.7-2.4 6 6 0 0 1 2.7-1.2c2.1-.5 4.5-.3 6.8-.5h9l.1-.1H221v-.1h3c.1.2.6.3 1.4.2l3.1.2 3.5.1h1.3c2 .2 3.7 0 5.6.2h1.8l4.8.4h3.4c1 0 1.5 0 2 .2s2.4.3 3.3.2c-.8-.3.4-.2 1-.2l2.2.1c.7 0 1.3 0 1.5.2l1.5.2 7.3.5c4.9.4 9.8.6 14.8.8a81.7 81.7 0 0 0 7.3.3l10.6.4a54.6 54.6 0 0 0 2.3 0zm-40-2h.5c.8 0 1.4 0 2 .2h.1l-.4.1h-1.7l-.6-.2zm-47.1-1.7.4-.1h1.7l-.3.1h-1.8zm15 .3s-.1 0 0 0h1.8-1.9zm97.2-10.4h-.1.1l.5-.2c.1-.2.5 0 .5-.3l.1-.1h.3c.2 0 .4-.2.5-.3.3 0 .4-.3.4-.4l.1-.2.7-.7.4-.2c.2 0 .3-.2.3-.4 0-.3.2-.6.4-1l.1-.4-.2-.3c0-.2-.3-.4-.2-.7l-.1-.2v-.4a1 1 0 0 0-.5-.7l-.4-.3a.7.7 0 0 1-.3-.3 2 2 0 0 0-.6-.7l-.9-.6-1.4-.9-.7-.3h-.2c-.2.2-.2.5 0 .6a13.3 13.3 0 0 1 3.2 2.4c.6.5 1 1.2 1.3 1.8l.1.7c0 .4-.1.8-.4 1l-.4.4a7.3 7.3 0 0 1-2.2 1.7l-1.7.6c-1 .2-2.2.2-3.3 0l-.3-.2a5 5 0 0 1-2.4-1.9c-.7-.8-1-1.8-1-2.8.1-1.3.7-2.7 1.4-3.8a4 4 0 0 1 2-1.7c.7-.2 1.5-.3 2.1-.1 1 .2 2 .9 2.6 1.8l.2.5.2.1.4-.1v-.6l-.2-.2c0-.3-.2-.4-.2-.5a4 4 0 0 0-1-1c-.3-.2-.5-.3-.7-.2v-.1a.5.5 0 0 0-.5-.3c-.2-.1-.5-.3-.8-.2-.2.1-.4 0-.6-.1a.9.9 0 0 0-.6-.1c-.5 0-1 .1-1.4.3l-1.1.6c-.4.3-.8.6-1 1l-.5 1-.2.6.1-.1h.1l-.1.3-.2.1s-.2 0-.2.2-.2.4-.3.5l-.2.7v.2c-.2.4 0 .8 0 1.1v.4c-.2.2-.1.6 0 1l.1.3.2.2v.5c0 .1.1.5.3.5.1-.2.2 0 .3.1l.3.3v.3c0 .1 0 .3.2.3.3.4.6.8 1 1 .8.7 1.7 1 2.7 1.2h1.5l2-.4 1-.5-.6.2zm-7.2-1.3h.1l.2.3v.1l-.4-.2v-.2zm-.4-8.2s.1.1 0 .2l-.1.2v-.3h.1zm-1.2 2.6v.3-.4zM186 116h-.2v-.1l.1-.6c0-.2.2-.5 0-.6v-.2l.1-.2h.1l-.1-.4v-.2c0 .2.2 0 .3.3 0 0 .1.1 0 .2 0 .2.2.3.4.4.3 0 .5.4.7.7l.1.3.4.2c.2.1.4.3.4.6l.2.3v.4c0 .3.2.6.4.8l.3.5c.2.1.3.3.3.5 0 .3.1.7.3 1l.3 1.2v2.1l-.1 1v.2c.2.2.5 0 .5-.3a10 10 0 0 0-.4-5.5 14.3 14.3 0 0 0-2-3.6l-1-1.3-.6-.6-1.2-.9v1.6l-.2 1.2-.1 2.2-.2 4.1v.5c-.3 2.5-.6 5.1-.3 7.8a13.5 13.5 0 0 0 4 8 35.3 35.3 0 0 0 5 4.6l.7.5h.2c.2 0 .4 0 .3-.2l-.1-.5h-.2l-.3-.3c0-.2-.3-.3-.4-.4l-1.2-1c-.2-.3-.3-.4-.6-.4l-.1-.2-.3-.4c-.2-.2-.4-.5-.7-.6a.7.7 0 0 1-.5-.5c0-.2-.2-.4-.3-.5l-1-1-.9-1-.8-1.3-.7-1-.3-.6h-.1v.3l-.2-.3v-.6l-.1-.6-.2-.7v-.3c0-.4-.3-.7-.3-1.1l-.1-.1v-1.6c-.2 0-.2-.2-.2-.4s0-.3.2-.4v-.7c-.2.2-.2 0-.2-.2v-.8c.2 0 .2-.2.3-.3 0-.5 0-1 .2-1.6l.2-3.2v-1.5l.2-2.3v-1.2.7zm-.8 8.5v-.5h.1v.5zm1.6 9.7c-.2-.2-.3-.3-.2-.4l.2.2v.2zm-1.2-3v-.3.3z"/>
    <path d="M191.9 121.7v-.1l.1.1v.6c.2.2 0 .5.3.6v.1c.1.2.1.3 0 .4l.2.6c0 .3.1.4.3.5l.2.2c0 .4.3.7.3 1 0 .2.1.3 0 .4 0 .3.1.4.3.6l.5.8v.4l.4.2.4.6.1.3.1.5.4.7.5.4.3.4.6.8.9.8 1.3 1.5.7.6h.2c.3 0 .3-.3 0-.5l-1.5-1.7-1.6-2c-.6-.7-1-1.5-1.5-2.3a43.8 43.8 0 0 0-1.2-2.2l-.2-.6-.8-2-.3-1-.5-2.1-1-3.9v-.4c-.4-2.4-.6-4.9-1.2-7.3-.4-1.6-1-3.2-2.2-4.6-.2-.2-.6-.5-1-.4-.5 0-.9.3-1 .5-.5.6-.6 1.3-.7 1.9a13.8 13.8 0 0 0 1.2 7.5c.1.1.3 0 .4-.1v-.5l-.1-.2-.1-.2-.1-.6-.3-1.4c0-.2 0-.5-.3-.6v-.2c.2 0 .1-.3.1-.5v-.8a.6.6 0 0 1-.1-.7l.2-.6V106c.1-.4.2-.8.4-1l.3-.2h.2c.3 0 .5.3.7.6l.4.5v-.3l.2.3v.5l.2.6.3.6v.3c0 .4.4.6.5 1v.1c.1.1.2.2.1.3v1l.2.3c.2 0 .2.1.2.3v.4c-.2.1-.1.5 0 .7.2-.2.2 0 .2.1l.2.5v.3c-.2 0-.2.2-.2.3l.1 1.5a22.2 22.2 0 0 0 .8 3.9l.2.6.4 2.2.5 1a2 2 0 0 1-.2-.6zm-1.5-8.2v.1c.2.2.1.3 0 .5l-.1-.4v-.2zm-2.9-8.9h.1l.2.3c-.1 0-.2 0-.2-.2zm1.4 2.6h.1v.3-.2zm19.2 11.3h.2s0 .3.2.1v.2c0 .1.2 0 .2.2h.2s.1-.1.1 0h.3s.1.1 0 .2c0 .2.1.2.2.1h.3v.2h.3c0-.1.2-.2.2 0h.1v.2c0 .1.2.2.3.1h.2c.1-.1.2-.1.2 0h.3l.4.1.6.3.3.1c.3-.2.3-.4.2-.5l-.6-.4-.8-.3-.9-.3h-.3a1 1 0 0 1-.5-.3h-.1l-.7-.4-.2-.2-.6-.3c-.4-.2-.7-.5-1.1-.6h-.1l-2-1.4-1.3-.8-1-.6-.7-.4-1-.7-.2-.1h-.1l-.3.3v.3h.1s.1 0 0 0c0 .2.2.2.2.2l.4.3s0 .1.2 0v.3c.2 0 .2.2.3 0 .2 0 .2 0 .2.2l.1.2.4.2c.2 0 .3.1.4.3l.4.2.4.1h.1s.1 0 0 0v-.1h.2v.3l.2.2.1.1h.1c0 .2.3.1.4.2 0 0 .1-.1.1 0 0 .2 0 .2.2.3h.1c.1-.1.1-.1.2 0v.1c0 .2 0 .2.2.1 0-.1 0 0 .1 0h.2v.2c.2 0 .2.2.4.3.2.3.5.4.8.6h.4l.6.5h.4c-.1.1-.2 0-.2 0zm-2.2-1.4.1-.1v.2h-.1v-.1zm-2.6-1.7.1-.1v.1zm.8.6h.1zm8.5-19.3h.1c0-.1.2 0 .2-.2h.2c0 .2 0 .1.2.1v-.2h.1l.3-.2h.2c0 .3 0 .2.1 0l.2-.1h.2V96s0-.2.2-.1h.5v-.3l.2-.1.2-.1.3-.3.6-.2.2-.2c0-.3-.1-.5-.2-.5l-.7.2-.6.4-.8.4-.2.2-.4.2h-.2l-.6.3h-.3l-.6.2-1.1.4h-.1l-2.1.6c-.5 0-1 .2-1.4.4l-1 .3-.7.2-1.1.3h-.2v.5l.2.2h.8l.1-.2h.3s.2.1.2 0c0-.2 0-.2.2-.1h.6l.4-.2.4-.1.3-.2h.1v-.5l.1.1c0 .1 0 .2.1.1h.5l.3-.2v-.1c.2.1.3.1.4 0h.1v-.2l.2.1c.1.2.2.1.2 0v-.2l.1-.1h.2v.2h.5l.9-.2.2-.2h.2l.6-.2.3-.3-.2.1zm-2.3.6c0-.1 0-.1 0 0h.1v.1h-.2zm-2.8.8v-.2h.1v.1zm.9-.2v-.1h.1-.1zm-14.7-13.4v.1c0 .1-.3 0-.1.2h-.2l-.2.1v.6h-.2l-.2.1v.3h-.2l.1.2v.2h-.1l-.2.1c-.1 0-.2 0-.2.2l.1.2v.2l-.2.2v.4l-.4.5-.1.2v.1c.2.2.3.3.4.2l.5-.5.3-.7.4-.7.1-.3.2-.4h.2c0-.3.2-.5.3-.6l.2-.3.3-.4.7-1 1.3-1.8.8-1.1.4-.9.4-.7a80.4 80.4 0 0 0 .6-1.2l-.3-.2h-.3v.1l-.2.1-.3.4v.2h-.2v.3l-.1.2h-.2l-.2.4c0 .2-.1.3-.2.3l-.2.4-.1.3v.2h.1v.1h-.3l-.1.2-.1.1c-.2.1-.1.3-.2.4.1.1.1.1 0 .1-.2 0-.2 0-.2.2v.2h-.2c-.1 0-.2 0 0 .2.1 0 0 0 0 .1v.1s0 .1-.1 0h-.2c0 .2-.2.3-.3.3l-.6.7v.3l-.1.1-.4.5v.3c-.1 0 0-.1 0-.1zm1.4-1.8c.1.1 0 .1 0 0h-.1v-.1h.1zm1.6-2.3v.1h-.1zm-.6.7v.1zM175 85v.3c.1 0 0 .2.2.1v.2c-.2 0 0 .1 0 .2l.1.1h.1l.2.4-.1.1c-.2.2 0 .2 0 .2.2 0 .2.1.2.2v.2h.2c.1 0 .3 0 .2.2v.3c-.1 0 0 .2 0 .2l.3.1.1.1.2.3.3.3c0 .2.2.3.3.5l.1.3h.1c.3 0 .5-.2.4-.3l-.3-.7-.4-.7-.5-.7-.2-.3a1 1 0 0 1-.2-.4V86l-.4-.6-.1-.4-.2-.6-.5-1.1V83l-.6-2.2-.5-1.5-.3-1c0-.3-.2-.6-.3-.8l-.2-1.2V76h-.7l-.2.3.1.1c-.1.1 0 .2 0 .2v.5s0 .2.2.2l-.1.2.1.3c.2 0 .2 0 0 .2v.2c0 .1 0 .3.2.4v.4c0 .2 0 .3.2.4l.2.4v.2h.2v.2h-.1v.6c0 .2.2.2.2.3h.1s.1 0 0 .1v.4l.3.1-.2.2.1.2c.2-.1.1 0 .2 0v.1c.1 0 .1.1 0 .2l-.1.1v.5l.3 1 .2.2v.1l.3.7c0 .1 0 .2.2.3V85zm-.8-2.4h.1v.1h-.2l.1-.1zm-.8-3s.1.1 0 .2v-.1zm.2 1zm-11.9 18h.2c.1 0 .1.3.3 0l.1.2c0 .2.1.1.2.2h.3v-.1h.4l.1.2c0 .2.1.2.2.1h.4v.2l.3-.1s.2-.2.3 0l.2.2c0 .2.1.2.3.2l.2-.1h1l.7.3.4.1.2-.5-.9-.4-1-.2-1-.3h-.3c-.2 0-.4 0-.6-.2h-.2l-.8-.3-.4-.1-.8-.3c-.4-.2-.9-.4-1.4-.4h-.1l-2.6-1a27.4 27.4 0 0 0-4-1l-1.4-.4h-.4l-.1.4v.3h.5c.1.2.3.2.5.3h.3c0-.1 0 0 0 0l.2.1s.2.2.3 0l.2.1.2.2h.5l.5.2c.2 0 .3.2.5.1h.8l.1.2.3.1.2.1c.2.2.4 0 .5 0 0 .1 0 0 0 0h.2c0 .3.1.3.3.3h.1l.2-.1v.2c0 .2.2.2.3 0 0-.1 0 0 .1 0h.2s.1 0 0 0c0 .2.1.2.2.2l.5.3 1 .4h.6l.7.4h.4-.2zm-2.8-1v-.1h.2v.1h-.2zm-3.4-1.2h.1-.1zm1 .4h.2-.1zm-67 19.6c0 .2-.3 0-.1.2h-.2c-.1-.1-.1 0-.2 0v.2c-.2 0-.2.2-.3.2l-.2-.1c0-.2 0-.1 0 0l-.3.1-.1-.1-.1.2s-.2.2-.2 0h-.1l-.1-.1H87l-.1.1h-.7l-.6-.3h-.4c-.2.2-.2.4-.1.4l.7.4.9.2H88l.6-.1h.1l.7-.4a2 2 0 0 0 .9-.7c.2-.4.3-1 .1-1.4v-.1a8.6 8.6 0 0 0-2.4-4.5l-.6-.5a13 13 0 0 0-1.2-1h-.1l-.2.4v.3l.2.2.3.3s0 .1.2 0v.3c.1 0 .1.2.3.1.1 0 .2 0 .1.1v.3l.4.2.3.3c0 .2.1.3.3.3l.2.3.2.1v-.1h.2v.1l-.1.2v.2l.1.2c0 .2.3.2.3.3h.1c-.1.2 0 .3 0 .4h.4l-.1.3c-.1 0 0 .1 0 .1h.3v.3l-.1.1v.4l.1.8.1.1v.2s0 .2-.2.3v.2c-.1 0 0 0 0 0zm.1-1.9h.1c.1 0 0 .1 0 .1h-.1zm-1.3-2.5v-.1c.1 0 .2 0 .1.1h-.1zm.5.8z"/>
    <path d="M99.1 133.2v-.2l.1.3v.8c.2.3 0 .7.2.9v.7c-.2.2-.1.6-.2.8v1.2c-.2.5-.3 1-.7 1.3l-.4.3c-.3 0-.5.1-.6.3-.3.3-.8.5-1.3.6h-.5c-.2 0-.3.2-.5.3-.3.1-.6.3-1 .3h-.5a2 2 0 0 1-.6-.1h-1.3l-.8.1a2 2 0 0 1-.7 0c-.5-.2-1-.2-1.6-.3a12.4 12.4 0 0 1-4.4-1.7l-1.2-.8-.3-.1c-.3 0-.2.4.2.7a14 14 0 0 0 7.3 2.9c1.4.1 2.9.1 4.3-.1l1.5-.4c.8-.3 1.6-.5 2.3-1l.7-.6c.8-1 1-2.3 1-3.4v-1.6l-.4-3.2c-.3-2-.6-4-1.2-5.9v-.6l-.6-2.3-.2-.7v-.1h-.2l-.4.1-1.2.3-1.6.3 1.6.2c2.2.2 4.5.2 6.7-.1l1.1-.2.4-.1h.2v-.1l-.3-.6-.5-1-.5-.9A50.8 50.8 0 0 0 91 105l-.8-.7a1 1 0 0 0-.4-.2c-.2 0-.3 0-.3.3l.3.5.3.2.4.3c0 .3.3.4.5.6l1.7 1.6c.2.3.5.6.8.6l.1.2.4.7c.3.3.6.7 1 .8.3.2.5.5.6.8.2.3.3.6.6.8l1.3 1.6 1.2 1.5c.4.7.8 1.3 1.3 1.8l1 1.5.5.8h.1l-.1-.4.3.5v.3l.2.4.4.9.3.4.2.4v.2a.4.4 0 0 1-.2.2h-.2l-.2.1h-1.8l-.5.2-.5.1-.6-.1c-.2-.2-.7-.1-1 0 .2.2-.1.1-.3.1h-1.1a.5.5 0 0 0-.5-.3v1.2l.6-.1h.4v.5l.2.5.2 1.1.5 2.3.3 1.2.2 1a50.8 50.8 0 0 1 .7 4zm-2.4-10.6.1-.2h.3v.1l-.2.1h-.2zm3.8-5.8h.2l.2.5h-.1l-.2-.3-.1-.2zm2.3 4 .2.2v.2l-.1-.2v-.2z"/>
    <path d="M93.7 130.8h.2s.1.3.2 0h.1l.1.1c0 .2.1.1.2.2l.3-.1v-.1h.5l.1.1c.1.2.2.1.2 0l.4-.1.2.1v-.2c.1 0 .2-.2.3-.1h.3c.1.2.3.2.3 0l.2-.2.2-.1c.1 0 .2 0 .3-.2l.4-.3.6-.3.2-.2v-.1c0-.3-.2-.4-.3-.4l-.7.4-.7.4c-.3.2-.6.2-1 .3l-.2.1a1 1 0 0 1-.6.1h-1.4l-.7-.2c-.4-.2-.9-.4-1.3-.4h-.2l-2.2-1.5-1.4-1-1-.9-.7-.6-1-1-.1-.2h-.1l-.3.2-.1.3h.1v.1l.2.2c0 .2.2.3.3.5h.3v.3c.1.1.1.3.3.2.1 0 .2 0 .2.2v.3c.2 0 .3.2.4.3.2 0 .3.2.4.3.1.2.2.3.4.3s.3.2.4.3l.2.1v-.1h.2v.3l.1.2.2.1.1.1c0 .2.3.1.4.2h.2c0 .2 0 .3.2.3 0 0 0 .1.1 0h.2v.2c0 .2.1.3.3.2 0-.2 0-.1.1-.1h.2v.3l.5.4c.3.3.7.4 1.1.5h.6l.8.3c.2.1.3.1.4 0h-.2zm-3-1.1.2-.1v.2h-.1v-.1zm-2.8-2.1v-.1l.1.1h-.1zm.8.7h.1v.1zm-28.1-35v.8l-.1-.2v-.7c.1-1 .4-1.8.8-2.6.2-.8 1.1-1.8 1.3-2.4a6.3 6.3 0 0 1 1.7-1.4c.7-.4 1.6-1 2.5-1.2l2.8-.5h1c1.6.3 3.2.9 4.5 1.9.5.4 1 1 1.4 1.6l1.2 1.9a29.4 29.4 0 0 0 .5-2.2l.2-.5a5.5 5.5 0 0 1 3-3l1.8-.3.7-.2.8-.2c1 0 2 0 3.3.7l1.2.9c.6.5 1 1 1.3 1.5a14.1 14.1 0 0 1 2.3 6c0 .8 0 1.6-.2 2.4a17 17 0 0 1-5.3 9 31.4 31.4 0 0 1-8.2 5.2l-4.1 1.8-.9.5c-.5.4.3.3 1.9-.3 3.6-1.5 7.2-3 10.4-5.5 1.7-1.4 3.3-3 4.6-4.8 1.2-1.9 2-4 2.4-6.2.3-2.3-.1-4.8-1.1-6.9a9 9 0 0 0-5.1-4.7c-.8-.2-1.7-.4-2.5-.4-.9 0-1.7.2-2.5.4a8.3 8.3 0 0 0-3.8 2.6l-.6.8-.2.4-.1.3-.2.5-.1-.2-.3-.4-.5-.5-1-1a10 10 0 0 0-10.7-.7 10 10 0 0 0-5 8.3v1a4.4 4.4 0 0 0-.7-.6l-.5-.2a7.7 7.7 0 0 0-5.9-.5 6.9 6.9 0 0 0-3.2 2.3 7.7 7.7 0 0 0-1.4 6.6l.2.6a2 2 0 0 0-.7 0 4.2 4.2 0 0 0-2.4 1.7l-.9 1.8c-.4 1.5-.3 3-.3 4.6l.6 4.5c.4 1.5.8 3 1.7 4.2.4.7 1 1.2 1.7 1.7l.5.3.5.3h.4l.1.1s.2 0 .1.1l-.2.3-.2.4-.6 1a8.4 8.4 0 0 0 .3 6.8 8.4 8.4 0 0 0 7.7 4.5h.7l.4-.1v.4a6.3 6.3 0 0 0 .5 2.5c.5 1 1.3 2 2.4 2.4 1.1.5 2.4.4 3.4 0a4 4 0 0 0 1.4-1.2l.3-.3v-.2l.2-.4v-.1l.1.2.2.2.1.2.3.2.5.4a6 6 0 0 0 2.3.9c1.6.3 3.3 0 4.8-.8 1.8-1 3-2.9 3.7-4.8l.6-3v-3h-.1l-.1-.1-.5.7-.4.5-.2.3-.2.1-.2.2h-.2l-1.1.4c-.8 0-1.7 0-2.4-.4a4.6 4.6 0 0 1-2-2c-.5-1-.7-2-.9-3l.1-3c.1-.4.3-.8.7-1.1.3-.3.7-.4 1.2-.3.7.1 1.4.5 1.9 1l1.4 2a7 7 0 0 0 1.6 2c.7.5 1.8.6 2.6.2a2 2 0 0 0 1.2-.8c.3-.4.4-1 .2-1.5l-1-2.2-2-4.4-1.6-3.2a11 11 0 0 0-.5-1c-.4-.5-.7-.6-.5 0l.6 1.8.5 1c.2.4.6 1.1.6 1.4l1.1 2.5 1.6 3.3.4.8.1.4v.3c0 .4-.4.7-1 .9H78c-.4-.1-.8-.4-1.1-.6l-.5-.6c-.1-.4-.7-1.4-1.2-2.1a5 5 0 0 0-1.7-1.6c-.7-.4-1.5-.6-2.2-.3-.8.2-1.3.8-1.6 1.4l-.4 1.8v3.1c.3 1.2.8 2.3 1.6 3.3a5 5 0 0 0 5.4 1.6l.5-.2.3-.1.3-.3.1-.1v.7a11 11 0 0 1-2.4 6.1 5.9 5.9 0 0 1-5 2 6 6 0 0 1-2.5-.6h-.2.2c.3.2.5.4.8.4l.2.2a5 5 0 0 1-1.7-1l-.3-.1-.2-.3-.2-.5-.3-.6-.2-.4-.3-.5-.2 1.1-.2.8-.1.4-.1.2-.5.5c-.3.2-.7.5-1.1.6a3.4 3.4 0 0 1-3.6-1.1 6 6 0 0 1-1.1-2.8v-1.8l-1 .3h-.4l-.3.1-.7.1h-1c-1.2-.4-2.8-1-4-2l-1-1.2c-.4-.1-.7-.7-1-1.3-.3-.9-.3-1.4-.2-1.8v-1.5l.1-1.6c-.3.7 0-.4.2-1a7 7 0 0 1 .8-1.5l.5-.7h-.1l-.2-.1-.3-.1-.6-.2H49l-.1-.2-.2-.1-1-1a7.1 7.1 0 0 1-1.7-2.8c-.4-1-.7-2.2-.9-3.4a34.3 34.3 0 0 1-.2-6.4c.2-1 .5-1.9 1.2-2.6l1-.8.4-.1h.1l.3-.1h1.8l-.6-1.4-.1-.4v-.2l-.2-.3c-.2-1.2 0-2.5.3-3.7a5.9 5.9 0 0 1 6-4 6 6 0 0 1 2.3.5l.6.3c.2 0 .3 0 .7.4l1 .9 1.1 1-.2-2.8V93a13.4 13.4 0 0 0-.1.4zm-14.1 25.5-.4-.4-.6-1.9v-.1l.2.4.6 1.5.2.5zm27.2 20.3-.3.2c-.5.3-1.2.5-1.6.4h.3l1-.4.6-.3zm-12.3 1h.1-.2a3.1 3.1 0 0 1-1.4-.8c.1 0 .2 0 .3.2l.7.4.5.1zm24.9 8.9h.1v.2s-.2 0 0 .1v.1l-.1.2.2.2v.3c-.2.1-.1.2 0 .2v.3l.2.2s.2 0 .1.1v.1l-.1.1v.3l.2.1v.1l.1.3.2.3v.5l.1.3h.6v-.7l-.2-.7-.2-.8-.1-.2c0-.2-.1-.3 0-.4v-.2l-.2-.6v-.8c0-.4 0-.7-.2-1v-2.2l-.2-1.2-.2-1-.2-.6v-1l-.1-.2h-.1c-.1-.1-.3 0-.4 0l-.2.2v.7l.1.2c-.1 0-.1.1 0 .2 0 0-.2.1 0 .2.2 0 .1 0 0 .2v.8c0 .2 0 .3.2.4v.3l.1.2h.1v-.1h.1v.1l-.2.1v.4l.1.3h.1v.1c-.2.1-.1.2-.1.3v.1h.2c0 .1 0 .2-.2.2-.1 0 0 .2 0 .2h.2l.1.1v.1h-.2l-.1.5v.8l.1.2v.7l.2.3zm0-2.1c.1 0 0 0 0 .1h-.1v-.1zm-.2-2.6s.1.1 0 .1zm0 .9z"/>
    <path d="M79.3 164h-.1v-.1l.6-.3c.1-.2.5-.2.5-.5l.1-.1.3-.2c.2 0 .4-.2.5-.3.3-.2.4-.4.4-.6l.1-.2.7-.9.4-.2c.2 0 .3-.2.3-.4 0-.4.3-.6.5-.9l.4-.3v-.3c0-.3 0-.5.3-.7l.2-.3.4-.3c.2-.1.4-.4.5-.7l.1-.5c0-.2.1-.4.3-.5l.5-.9.6-1 1-1.8c.3-.2.4-.5.6-.8v-.2c-.1-.2-.4-.2-.6 0l-1.4 2-1.4 2.4-1.5 2.4-.5.8a8 8 0 0 1-.9 1.3l-.4.5a12.8 12.8 0 0 1-4 3.6l-.8.3-.5-.6-1.4-1.5-.3-.3-4.9-5.7-1.6-2c-.6-.6-1-1.2-1.2-1.9l-.1-1.7v-4.4l.1-4V141h-.5l-.2.4v1.1l-.2 1.5.1.7v.2l-.1.5c0 .2-.1.6 0 .8v.7l-.1.7a33.6 33.6 0 0 0 0 2.7c0 .5-.1 1 0 1.6.1.4.2 1 .5 1.4 0 .2.2.4.3.5h.1v-.2h-.1v-.1l.3.3v.3s0 .2.2.3l.4.5c0 .2.3.4.4.6l.2.2c.2.4.6.5.8.8l.2.1.1.2c0 .3.3.6.6.8l.3.3.3.1c.1.2.2.3.1.5 0 .2.3.4.5.5 0-.3.2 0 .3 0l.3.4c.1 0 .2.1.1.3l.1.3 1 1.2c.6.9 1.3 1.6 2 2.4l.6.6.6.6.3.4h.1c0 .1 0 0 .1 0h.3l.4-.2.4-.2 1-.6c.4-.2.7-.4 1-.8l-.6.5zm-6.7-3.6h.1c.2 0 .2.2.2.3v.1h-.1l-.3-.3v-.1zm-6.2-8 .1.1c0 .2.1.3 0 .4v-.4zm1.7 2.9h.1l.2.2-.2-.1v-.1z"/>
    <path d="m90.4 175-.2-.1h.3l.6.3.8.3.4.2.3.1v-1.2l.1-.5.2-.5c.2-.3.1-.8.2-1.1.2-.5.1-.9 0-1.2v-.4c.2-.6.1-1.3.2-1.9l.2-.7c.3-.4.2-.7.2-1l.1-1.8.2-.7-.1-.6v-1.3l.2-.6.2-.8c.2-.4.2-1 .2-1.6l-.3-1-.2-.9a4 4 0 0 0-1-1.7l-1.6-1.4-3-2.2-1.2-1.2-.3-.3c-.4 0-.3.4.1.9 1.1 1.2 2.3 2 3.5 3 1.2.9 2.4 1.9 2.8 3.2.6 1.4 0 3.2 0 4.9L93 165c0 1-.2 2-.3 2.9l-.2 1-.5 4.2-.2 1.6-.6-.2-.9-.4a40 40 0 0 1-7.9-4.7l-.5-.4a34 34 0 0 1-2.5-2.4l-1.2-1.2c-.5-.4-1.2-.5-1.8-.4a31.3 31.3 0 0 0-6.4 2.5 35.2 35.2 0 0 0-4.9 3l-.9.6c-.3.2-.6.3-.7.2-.2 0-.3-.3-.4-.6-.7-2-.8-4.2-.7-6.3.1-1.6.3-3.1.6-4.7.5-2.4.8-4.9 2-6.8l.8-1 .3-.3c.1-.2 0-.4-.2-.4-.3 0-.5.2-.8.3 0 0 0 .3-.2.4l-.4.5c-.2.1-.4.5-.6.8l-1 2.8c0 .4-.2.8 0 1.2l-.1.3c-.2.1-.3.5-.4.8 0 .5-.3 1.1-.2 1.6 0 .5 0 .9-.2 1.3a2 2 0 0 0-.3 1 25 25 0 0 0-.2 2.7v2.5c0 .9.1 1.8.4 2.7l.4 1.1.5.7c.3.2.6.3 1 .3s.8-.3 1.1-.6c0-.1 0 0 0 0l-.4.1h-.1l.7-.4c.1-.2.2-.2.3-.2.1 0 .3 0 .5-.2l1-.6 1-.7c.2 0 .4-.2.5-.3.7-.3 1.1-.8 1.8-1l.2-.3.3-.2c.6 0 1.1-.3 1.7-.6l.6-.3c0-.2.3-.3.5-.4.4-.1.6-.1.8 0l1.1-.5c-.3 0 .1-.2.3-.3l.8-.2.5.1.3.3c.7.2 1.2 1 1.8 1.7a25.9 25.9 0 0 0 5.7 4.6l1 .6 3.7 2a10.7 10.7 0 0 0 1.4.5l-.6-.3zm-12.3-8.9h.2l.5.6v.1h-.2l-.5-.5v-.2zM62.5 171l.1.1.4.7h-.2l-.2-.5-.1-.3zm5-1.1v-.1l.6-.3-.3.3h-.2z"/>
    <path d="M83.2 207.3v.4l-.1-.5-.2-1.4c-.2-.5 0-1.3-.3-1.6l-.1-.5v-.8l-.2-1.6c0-.7-.2-1.1-.4-1.6l-.2-.5c0-1-.3-1.8-.4-2.7v-1.1c0-.6-.1-1-.3-1.5-.3-.7-.4-1.6-.5-2.4v-1l-.4-.9c-.2-.5-.4-1-.4-1.8v-.9l-.1-1c0-.8 0-1.6-.3-2.3l-.3-1.3-.1-1.4-.1-2.7a20.9 20.9 0 0 1 1.1-8.2l1-2.2.1-.5c0-.5-.4-.2-.8.7a21.8 21.8 0 0 0-2 13.1c.2 2.5.5 5 1 7.4l.4 2.5.8 4.1.2 1.6 1 5.8.4 2.7c.3 1.9.7 3.7.8 5.5 0 .9 0 1.7-.2 2.5-.1.9-.5 1.6-1 2.4-.8 1.4-1.9 2.8-2.8 4.2l-.6.9-1.5 2-.3.3v.2l-.3-.1-.9-.7c-1.1-1-2-2.4-2.5-4-1-3-.5-6.3 0-9.5.8-4.2 1.3-8.5 1.6-12.8.3-3 .4-6.1.6-9.2.2-2.3.3-4.5.3-6.8a29.4 29.4 0 0 0-2.4-12.2l-.4-.5c-.2-.3-.4-.3-.4 0 0 .4.2.7.3 1l.2.6.4.7a23.8 23.8 0 0 1 1.2 5.2c0 .6 0 1.3.3 1.7v.4c-.2.3-.1.9-.1 1.3v2.2a3 3 0 0 1 0 1.9l-.1 1.6-.2 3.6a56.9 56.9 0 0 1-.5 7.3c0 1 0 2.2-.2 3.2l-.1 1.6v.1-.1l.1-.5v-.2h.1v1.2l-.2.4-.2.8c0 .6-.2 1-.3 1.6l-.2 1.9-.1.7c-.3 1-.2 2-.4 3v1a8 8 0 0 0-.6 2.6v1l.1.9c0 .5 0 .8-.2 1-.1.4 0 1.4.2 1.9.1-.5.2.2.3.5l.4 1.2.2.8c0 .2 0 .5.2.9a9.3 9.3 0 0 0 3 3.5l.4.2.5.3h.1l.2-.2 1-1.2 1-1.6 2.4-3.3c.4-.6.9-1.2 1.2-2l.8-1.6c.8-2 .6-4.1.3-6-.1-1-.3-2-.6-2.8l.3 1.6zm-9.8 14 .2.3.7.9v.1l-.2-.1-.7-.8v-.3zm.2-25.2v1.2l-.1-.2v-1zm-1 8h.1v1l-.1.1v-1zm-34-31h.1v.1l-.5.4c0 .2-.4.2-.3.5l-.1.1-.3.1c-.2 0-.3.3-.4.4l-.3.6v.2l-.7.8-.3.3c-.3 0-.3.2-.3.4l-.5.8-.3.2v.4c-.1.2-.1.4-.4.6l-.2.3-.3.2a1 1 0 0 0-.5.7l-.1.5-.2.5c-.3.2-.4.5-.5.9l-.5 1c-.3.5-.5 1.1-.9 1.6l-.4.8v.2c.2.3.4.2.6 0l1.1-2 1.2-2.2 1.4-2.3.5-.8.8-1.2.4-.5L38 175l.7-.7 1.3-1.5 2.6-2.8.3-.3a65.7 65.7 0 0 1 9.3-7.2l2.8-1.8 2.2-1.3a46.9 46.9 0 0 1 4.2-2l-.1-.5h-.5l-.1.1-.3.1-.5.2-1.4.5c-.2.2-.4.2-.5.5h-.1l-.5.1c-.3.1-.6.2-.7.4-.2.3-.4.4-.6.4-.2 0-.4 0-.6.2l-1.2.7-1 .6a5 5 0 0 0-1.2.8l-1 .7-.5.4h.4l-.3.2s-.1.1-.2 0l-.3.1-.5.3-.6.4-.2.2c-.4.1-.6.5-.9.7v.2l-.2.1c-.3 0-.6.2-.8.5l-.3.2c0 .2 0 .2-.2.3 0 .2-.2.2-.4.1-.1 0-.4.2-.5.5.3 0 0 .1 0 .2l-.3.4H45s-.2 0-.3.2l-1.2.8-2.2 2a3 3 0 0 0-.5.7c0 .2-.2.3-.4.5l-1.5 1.5-.6.9.4-.5zm5.8-5.5v.1c-.1.2-.3.2-.4.2 0-.2.1-.2.2-.3h.2zm7.4-5.7v.2l-.3.1.2-.2h.1zm-2.5 1.7-.2.2.1-.2h.1zm93.4 12.1.6-.2c-.3 0-.5.2-.8.4l-2.7 1c-.8.5-2.2.7-2.8 1.2l-1 .2-1.3.4c-1 0-2 .5-3 .6a26.1 26.1 0 0 0-4.2 1c-1.8.3-3.5.6-5.2.7h-2.1c-1-.2-1.8-.1-2.8 0h-2.3a25.8 25.8 0 0 1-4-.5c-.2 0-.1.1-.1.3v.4l-.1.7.2 1.7v5.4l-.1 2a29.3 29.3 0 0 0 .1 7c.1.9.2 1.8.1 2.7 0 1.8 0 3.5.2 5.3l.2 5.9.4 10c0 1.6.2 3.2.3 4.7l.2 1c.2.7.4-.1.3-2l-.4-12-.5-13.4v-18.6l.2-.1h.3l1 .1 2 .1h2l2 .1h1.6l1.5-.1a60 60 0 0 0 13.8-2.7c.9-.2 1.7-.6 2.6-.9 3.4-1.2 6.7-2.8 9.8-4.6 5.8-3.5 11-7.9 16.2-12l1.6-1.3L181 149l-1.4-2.3-1.3-2a161.7 161.7 0 0 0-5.6-8.2l-1.4-2-1.6-2-.3-.5-.5.2-.8.4-1.5.6-2.8 1.4a43 43 0 0 0-5.2 3.5c-3.3 2.5-6.5 5.3-9.6 8-2.3 2-4.5 3.8-7 5.6a35 35 0 0 1-20.2 7.6c-6.6.5-13.3-.2-20-.3a76.9 76.9 0 0 0-5 0c-.7.2-.8.4-.1.5l2 .2h1c.6 0 1.4-.1 1.6 0l2.8.1 7.8.4h6.7c1.4 0 3 0 4.2-.2a27 27 0 0 1 3.7-.5c1 0 2-.2 3-.6 1.3-.2 2.4-.7 3.5-1 1.1-.6 2.3-1 3.3-1.6l1.5-.8 1.4-.8 2.9-1.9c2-1.4 4-3 5.8-4.6l4.8-4.2 2.2-2 .1-.1-.2.1-.7.7-.3.1 1.7-1.5.7-.5c.2 0 .7-.3 1.3-.8l2.6-1.9 3-2 1.1-.6 2.6-1.4 1.3-.6.7-.3.2-.1h.2l.2.2c.3.2.5.6.7.9.7 1.2 1.8 2.6 2.8 4l1.1 1.5 1.2 1.4 1 1.8a15 15 0 0 0 1.8 2.9c-.3-.8.4.3.7.8l1.3 2 .2.3-.5.2a5 5 0 0 0-1.3.9l-6.1 4.6c-4.1 3-8.2 6.3-12.3 9.5a132 132 0 0 0-6 4.7 60 60 0 0 1-9.3 5.8c-1.8 1-3.4 1.6-4.9 2.4l2.9-1.3zm34-24.2-.5.4c-.6.6-1.1 1-1.7 1.3h-.1l.3-.3 1.4-1.1.5-.3zm-27.2-5 .3-.3 1.4-1.1-.2.2-.9.8-.6.5zm12.3-9.7h-.1l.1-.1 1.4-.8.3-.2-.4.3-.8.5c-.2 0-.3.2-.5.3z"/>
    <path d="M171 147.8h.1v.3c.2 0 0 .2.3.1v.5c0 .2.1.2.3.2h.1c0 .2.2.3.3.4v.3c-.2.1 0 .2 0 .2.2 0 .3.1.3.3v.2h.3s.2 0 .2.3v.3c0 .1 0 .3.2.3l.3.1.2.2.2.4c.2 0 .3.2.4.3l.5.8.2.3h.2c.2 0 .4-.2.3-.3l-.5-1-.7-.9-.7-1-.3-.3-.4-.5-.1-.3-.5-.8-.2-.4-.5-.8-.8-1.5-.1-.2-1.4-2.9-1-1.8-.8-1.4-.5-1-.8-1.5-.1-.3h-.1c-.1 0-.3 0-.4.2l-.1.2.1.2v.3l.3.6s0 .2.2.2v.3c0 .1 0 .3.2.3s.2.1.2.3v.3l.3.5.3.5c0 .2.1.4.3.5l.3.5.1.2h.1v-.2l.2.1v.2c-.2 0-.2.1-.2.2l.1.2.2.3v.1c0 .2.3.3.3.4h.1s.1 0 0 .1l.1.5h.1c.2 0 .2 0 .2.2v.2c-.2.1 0 .2.1.2.1-.1.2 0 .2 0l.1.2s.1 0 0 .2v.2l.1.6.6 1.2.3.3.2.2.4.8c0 .2.1.3.3.4a.3.3 0 0 1-.2-.3zm-1.6-3.2h.1c.1 0 .1.1 0 .2h-.1v-.2zm-1.8-3.7s.1 0 0 .1v-.1zm.5 1.2.1.1zm15.6-4.1v-.1l.1-.1c0-.1.3 0 .1-.2h.2l.2-.1v-.3l.2-.3h.2l.1-.1.1-.3h.2v-.2c-.1-.1-.2-.3 0-.3h.2c.2 0 .2 0 .2-.2v-.4c.2 0 .2-.2.2-.3 0-.1 0-.3.2-.4l.3-.4.2-.3c-.2-.3-.4-.4-.4-.3l-.5.5-.5.7c0 .3-.3.5-.4.7l-.2.3c0 .2-.2.3-.3.4l-.1.1-.4.5-.3.3-.4.4-.8 1h-.1l-1.7 1.5-1 1-.8.9-.5.5-.9.8-.1.2v.1l.2.3h.3l.3-.1.3-.3c.1 0 .2 0 .1-.2h.3c0-.1.2-.1.1-.3l.2-.1h.2l.2-.4.3-.3c.2 0 .3-.1.3-.3l.2-.3.1-.2h-.1v-.1h.5l.2-.2c.2 0 .1-.3.2-.4v-.1l.3-.1s.1 0 0-.1v-.2h.3c.1.1.2 0 .1-.1-.2 0 0-.1 0-.2s0-.2.1 0h.2c.1-.2.3-.2.4-.3l.7-.6.1-.3.1-.2.5-.4.1-.3v.1zm-1.8 1.6v-.1h.2v.2h-.2zm-2.1 2s0-.1 0 0zm.7-.6zm.1-18.8v.3s-.2.1 0 .2l-.1.2c-.2 0-.1.1-.2.2l.1.2s.1.1 0 .1c0 .1.1.3 0 .4v.1c-.3 0-.2.2-.2.2.2.2.1.3 0 .4v.1l.1.2c.1.1.2.2 0 .3v.1l-.1.1c-.1.1-.1.2 0 .4v.2c.2 0 .2.1.1.2v.4c0 .1.1.3 0 .4v1.2h.6l.1-.9v-2.4l.1-.6v-.3l.2-.8v-.4l.2-.8.2-1.5v-.1l.7-2.7.5-1.7.7-1c.2-.2.4-.3.7-.3.4-.1.9 0 1 .3h.2v.1l.5-.2v-.3l-.1-.1c0-.2-.1-.2-.2-.3l-.6-.3h-.7s-.3-.2-.3 0c-.1.2-.2.2-.3.1h-.4l-.5.4-.4.5c-.2.1-.3.3-.3.5l-.2.5v.3h.1v.1l-.2.1-.1.3-.1.2v.1c-.2.2 0 .3 0 .5-.1 0 0 0 0 0v.1c-.2.1-.2.2-.3.4v.1c.2 0 .2.1.2.2h-.2c-.2.1-.2.2 0 .3.1 0 0 .1 0 .1l.1.2-.1.1-.2.1-.2.5-.3 1.2v.5c0 .3 0 .6-.2.8l.1.5v-.3zm.7-3c.1.1 0 .2 0 .2h-.1v-.2zm1-3.6v.2h-.1v-.2zm-.5 1.1v.2-.1zm-3.8 6.5h.1l-.2.5c0 .2-.2.3 0 .5v.2l-.2.1c-.2.1-.2.3-.3.5v.7l-.4.7-.2.3c-.2 0-.3.2-.2.3 0 .3-.2.6-.3.8 0 0-.3 0-.3.2v.3c0 .2 0 .4-.2.5l-.2.2-.3.2-.4.5-.2.5c0 .1 0 .3-.2.3l-.6.7-.6.7-1.3 1-.6.4-.1.2c0 .3.2.4.5.2a11 11 0 0 0 3.3-2.7l1.4-2 .4-.7a12 12 0 0 1 .8-1.6l.7-1.8.3-.8a14.9 14.9 0 0 0 .5-5v-.4c.1-2 .3-4 .7-6l1-4 .6-2.7c.3-.6.5-1.3 1-1.7.4-.3.8-.5 1.3-.4.4 0 .9.3 1 .6l.2.3v.2h.5l.2-.4v-.2l-.2-.2c0-.3-.2-.4-.3-.5a2 2 0 0 0-1.4-.6c-.2 0-.5 0-.6.2h-.2c0-.2-.3 0-.5 0-.2.2-.5.3-.6.6 0 .2-.2.4-.4.5-.2 0-.3.2-.4.4l-.5 1.2c0 .3-.1.7-.3 1l-.3 1.2-.1 1-.1.5.1-.1v.4c-.2 0-.3.1-.3.2 0 .2 0 .4-.2.5l-.1.6v.2c-.2.3 0 .7-.2 1v.1c.1 0 .1.2 0 .2-.2.2-.2.5-.2.8v.6c0 .2 0 .2-.2.3-.1 0-.2.4 0 .6.2-.1.1 0 .1.2v.3l-.1.3-.2.2-.2 1.3v3.7c0 .6-.2 1.2-.3 1.7v1-.6zm.6-6.6h.1v.4h-.1l-.1-.3.1-.1zm1.5-8 .1.1-.1.3v-.4zm-.6 2.5v.3h-.1v-.2zm-13.2 5.9v-.2h.2c0-.1.2 0 .1-.2h.5l.1-.2v-.1c.2 0 .2-.2.3-.3h.2c.2.2.2.1.2 0 0-.2.1-.2.2-.3 0 0 .2.1.2 0v-.2s0-.2.2-.2h.3c.1 0 .2 0 .3-.2v-.2c0-.1 0-.2.2-.2 0 0 .2 0 .3-.2l.2-.3c.2-.2.4-.4.6-.4l.3-.3c0-.3-.2-.5-.3-.4l-.8.4-.7.6-.8.7-.3.2c-.1.2-.2.3-.4.3l-.2.1-.7.5-.3.2-.7.3-1.2.8h-.1l-2.4 1.3-1.5.8-1.1.6-.8.5-1.3.6-.2.2c0 .2 0 .4.2.4l.2.2v-.1h.4l.5-.3.1-.2h.3s.2 0 .3-.2c0-.1 0-.2.2 0h.2l.4-.4.5-.2.4-.3.4-.2.1-.2h-.1v-.2h.2c0 .2.1.2.1.1h.3l.2-.1h.1c.2 0 .2-.3.3-.3v-.1s0-.1.1 0l.4-.1v-.1l.1-.2h.2c.1.2.2.1.2 0-.1-.2 0-.2 0-.2l.1-.1s.1-.1.2 0c0 0 .1.1.2 0h.5l1-.6.2-.2.2-.2.7-.3c.1 0 .2-.1.2-.3l-.2.1zm-2.6 1.3v-.1h.1v.2l-.1-.1zm-3.1 1.6v-.1h.1c0 .1 0 .1-.1 0zm1-.5h.1-.1zm-110 66h-.4l.5-.1h1.6c.6 0 1.2.6 1.6.6l.4.3.4.7.8 1.6c.2.7.5 1.2.9 1.7l.3.6c.4 1 1 2 1.3 3l.4 1.2c0 .6.3 1 .6 1.5.5.8 1 1.8 1.3 2.7l.4 1.2.5.8c.4.6.8 1.2 1 2l.4 1 .4 1.2c.2.8.6 1.7 1 2.5l.8 1.4.7 1.4 1.3 3 1.6 3.2c.8 1.9 1.7 3.7 2.4 5.6l1.2 2.6.3.5c.4.3.4-.2 0-1.2l-2.9-6.8c-1-2.5-2.2-5-3.3-7.4l-3.5-7.9-1.3-2.7-2-4.5-.7-1.7-1.4-3.2-1.5-3.2a4 4 0 0 0-2.5-2.2 8.1 8.1 0 0 0-3.3-.2l-3.3.4-12.2 1-1.2.1c-7.7.4-15.3.5-23 .3-1.2 0-2.6-.2-3.9.5-.6.4-1 1-1.3 1.7a5 5 0 0 0-.3 2c.1 1.3.5 2.5.8 3.8l1 3.6 2.8 10.5 2 7.7 3.2 12 .6 2.1.2.7c.2.4.4.4.4 0v-1.2l-.3-.6-.2-1c0-.5-.2-1-.4-1.7l-1-4.5c-.3-.7-.4-1.5-.7-2l-.1-.4-.3-1.6c-.2-.8-.4-1.8-.7-2.4a6 6 0 0 1-.6-2.2l-.3-1.9-1.2-4.1-1-4a53 53 0 0 0-2.2-8l-.5-1.7-.1-.2v.2l.1.6v.1l-.4-1.2v-1.5c-.2-.6-.2-1.2-.2-1.8a3 3 0 0 1 .7-1.7c.1-.2.3-.4.5-.4.9-.5 2-.7 3.2-.6h1c.9.2 2 .2 3 .2h1.2c.2-.2.6-.2 1-.2.7 0 1 0 1.3.2h2.1c-.5-.2.3-.2.6-.2h2.4l1 .1h4.6a141.7 141.7 0 0 0 12-.8l2.1-.2 6.8-.6 3.1-.3h-1.7zM26 187.1h1.8-.2l-1.1.2-.4-.2zM8 197.8v-.2l-.3-1.1.1.2.2.6v.5zm-1.3-9v-.2a2.3 2.3 0 0 1 .6-.7l-.2.1-.3.4-.1.3z"/>
    <path d="M95.1 226.2h.5c.2-.1.4.1.5-.1h.4c.1.2.3 0 .5.1l.5-.1.1-.1.9-.1h.3c.1.2.3.2.4 0l.7-.1.3.1.3-.2c.2 0 .3-.2.6 0h.2l.3.1c.2.2.4.2.6.2l.5-.1h.3l.7.5c.3.1.6.3.7.6.4.4.6 1 .6 1.5v1c.1.2.4.2.5-.2a3 3 0 0 0-.3-2.4 3.7 3.7 0 0 0-2-1.6c-.7-.3-1.5-.4-2.3-.4h-.8a9 9 0 0 1-1.3.2h-.4l-1.8.2h-.8l-1.7.1c-1 0-2 0-3.1.2h-6.2l-3.9-.2h-2.7l-2-.1c-1.1 0-2.2-.2-3.2-.3h-.8c0 .1-.1.3 0 .4l.3.3h.4l.4.1 1.2.2.5-.1h.2c0 .2.2.2.4.2h.6c.2-.2.4-.1.6 0l.5.2a20.3 20.3 0 0 0 2.1 0H82v-.1h-.2a48.1 48.1 0 0 0 .5 0l.2.1h.5l.6.1h1.2v-.1h.2c.3.2.5.2.8.1h.3c0-.2.2-.2.3-.2l.3.2c0 .2.4.1.5 0-.1-.2.1-.1.2-.2h.6c0 .2.1.2.2.2l1.2.1h3.1l.6-.2h1.7c.3 0 .6 0 .8-.2-.1.2-.3.2-.5.1zm-6.5.1c.2-.1.3 0 .4 0v.1h-.4zm-7.7-.1v-.1h.4-.3zm2.5 0h.2v.1h-.2z"/>
    <path d="m135.4 229.2-.7-.1h3.7c.9-.1 2.2.1 3-.2h.8l1.4.1c.9.2 2 0 3 .1 1.3 0 2.1 0 3-.2h8.1a9 9 0 0 0 2.6.2c1.4-.2 3-.1 4.6 0l2 .1 1.5-.2c1 0 2.1-.2 3.3.5.4.1.8.5 1.1.9.4.6.6 1.1.7 1.7l.6 4.1.4 2.5.4 2.4.5 5c.2 1.8.5 3.7.6 5.6.2 3.2.3 6.3.2 9.6l-.2 4.4v1c.2.7.4 0 .6-1.8a136.3 136.3 0 0 0-1.1-24.3l-.8-6.6c-.2-1.2-.3-2.3-.9-3.4a3.9 3.9 0 0 0-3-2.1c-.8-.2-1.6-.2-2.4-.2h-2.3l-7.7-.1h-18.8l-10.3.2c-6.4.2-12.8.3-19.1.7h-2l-35.8 1.4-23.7.8-17 .4h-22l-4.8-.2-4.8-.2-3.5-.2h-1.1c-.7.1-.8.4-.2.5l1.8.3h2.6c.8.2 1.8.2 2.7.3l7.3.2c1.2 0 2.4.1 3.2 0h.7c.5.2 1.6.2 2.5.2h4c1.3-.2 2.4-.2 3.4 0h9.7a454.8 454.8 0 0 1 13.4-.3l6-.3 2.9-.1h.2l-.2-.1h-1.2l2-.1h1c0 .1.6.2 1.3.1h3.2l3.4-.1h1.3c2 0 3.7-.3 5.6-.4h.7c.4-.1.8-.2 1.1-.1h4.7l1.8-.2 1.7-.2 1.9.1c.6.1 2.5 0 3.3-.1-.8-.2.4-.2 1-.2a154 154 0 0 1 3.7-.1h1.4l7.3-.1 14.7-.6c1.4 0 2.8 0 4.1-.2l3.2-.1a466.5 466.5 0 0 1 12.7-.3zm-39.8 1.1h.6c.7-.2 1.4-.2 2-.1h.1l-.4.1-1.7.1h-.6zM49 232c-.1 0-.1 0 0 0h2-2zm14.9-.4h-.1.2l1.5-.1h.3-.4l-.9.1h-.6zm-28.6-16.8.5-.1c.2-.2.5 0 .5-.3h.4l.6-.2c.2 0 .3-.3.3-.4l.2-.2.6-.7.3-.2c.3 0 .3-.2.3-.3 0-.3.1-.6.3-.8 0-.2.2-.2.2-.3l-.1-.4v-.8l.2-.4v-.7a2 2 0 0 0-.3-.4.6.6 0 0 1-.1-.4c0-.3-.2-.5-.4-.8l-.5-.7c-.3-.4-.8-.7-1.2-1l-.6-.3h-.2v.6c.5.2 1 .5 1.3.9a4.5 4.5 0 0 1 1 4.2c0 .4-.2.8-.5 1 0 .2-.2.3-.3.4a4 4 0 0 1-1.2 1l-.8.4a5 5 0 0 1-1.6.3c-1 0-2-.2-3-.6l-.2-.1c-1.6-1-2.8-2.7-2.7-4.6a5 5 0 0 1 1.3-3.3 4.4 4.4 0 0 1 4-1.4 5 5 0 0 1 2.7 1.3l.3.4h.2c.1 0 .3 0 .3-.2v-.4H37l-.2-.3-.3-.3-1-.8c-.2 0-.4-.2-.6 0l-.1-.1c0-.2-.3-.3-.4-.3-.2 0-.5-.2-.7 0l-.6-.1-.6-.1c-.4 0-.8 0-1.2.2l-1 .5c-.4.1-.8.4-1 .7l-.7 1-.3.4h.1l.1-.1v.3h-.2c-.1 0-.2 0-.3.2l-.2.5-.2.6v.2c-.2.4 0 .7-.1 1v.2c.1 0 .1.1 0 .2-.1.2 0 .5 0 .8l.1.3c.2 0 .2.2.2.3.1.1 0 .2 0 .4-.1.1 0 .4.2.5.1-.2.2 0 .3 0l.2.4v.3l.1.3.8 1c.6.7 1.5 1.1 2.4 1.4h.7l.6.1a8 8 0 0 0 1.9 0l.9-.3a1 1 0 0 1-.6.1zm-6.3-2.2h.1l.2.4h-.1l-.3-.2v-.2zm.1-7.4c0 .1 0 .3-.2.3v-.1l.1-.2h.1zm-1.3 2.2v.3h-.1v-.4zm260.4-87h.2s.1.2.2 0c.1.2.2.1.3.1l.1-.1.1-.1h.4c.1.2.2.1.2 0 0-.2.1-.2.2-.2 0 0 .1.1.2 0v-.1c0-.1 0-.3.1-.2h.5v-.5c.2 0 .2 0 .2-.2l.1-.3.3-.4v-.3l-.5-.2-.2.4-.3.4c0 .2-.3.3-.4.5l-.2.1-.3.2h-.2l-.5.1h-.2a2 2 0 0 1-.5 0l-.9-.4c-.5-.4-.8-.9-1-1.4v-1.9l.2-.6.6-.6.1-.1v-.1l-.3-.4h-.2c0-.1 0 0 0 0h-.2l-.4.4s-.1 0 0 .2h-.2c0 .1-.2.2-.1.3l-.1.2-.2.1v.4l-.2.4v.9h.2c.1 0 0 .1 0 .1-.1 0-.2 0-.1.1v.4c-.1.2.1.3.1.4h.1c-.1.2 0 .3 0 .4l.2.1v.2c-.2 0 0 .2 0 .2.2-.2.2-.1.2 0h.1s.1 0 0 .1v.2l.2.4c.2.3.5.5.8.6h.4l.7.3.3-.1h-.1zm-2-1.2v.2h-.2l.1-.2zm-.9-2.5h.1v.1-.1zm0 .8v.1z"/>
  </g>
</svg>
